<?xml version="1.0" standalone="no"?>
<!DOCTYPE svg PUBLIC "-//W3C//DTD SVG 1.1//EN" "http://www.w3.org/Graphics/SVG/1.1/DTD/svg11.dtd" >
<svg xmlns="http://www.w3.org/2000/svg">
<metadata></metadata>
<defs>
<font id="ktm_icons_2016regular" horiz-adv-x="2400" >
<font-face units-per-em="1000" ascent="750" descent="-250" />
<missing-glyph horiz-adv-x="500" />
<glyph unicode=" "  horiz-adv-x="500" />
<glyph unicode="&#x09;" horiz-adv-x="500" />
<glyph unicode="&#xa0;" horiz-adv-x="500" />
<glyph unicode="!" d="M1982 463q-87 -92 -204 -70q-50 10 -89 37v-328q0 -22 -16.5 -38.5t-38.5 -16.5q-23 0 -39.5 16t-16.5 39v316q-17 -27 -67 -103q-88 -131 -151 -187q-92 -86 -198 -86q-86 0 -159 55q-56 42 -95 106q-12 19 -6.5 41.5t25.5 34.5q19 12 41.5 6.5t34.5 -24.5 q65 -108 159 -108q63 0 120 53t137 171q93 139 169 245q14 19 35 23q20 4 37.5 -5.5t24.5 -28.5q18 -45 48 -74t65 -36q57 -11 103 38q16 17 38.5 17.5t39.5 -15.5t18 -38.5t-15 -39.5zM1160 540q-63 0 -120 -53t-137 -171q-158 -234 -169 -245q-16 -24 -46 -24 q-22 0 -38.5 16.5t-16.5 38.5v328q-39 -28 -88 -37q-118 -22 -204 70q-16 17 -15.5 39.5t17.5 38.5t39.5 15.5t38.5 -17.5q47 -49 103 -38q35 7 65 36t48 74q7 19 24.5 28.5t37.5 5.5q19 -4 32 -19t13 -35v-316q41 65 68 103q87 130 150 188q92 85 198 85q86 0 159 -55 q56 -42 95 -106q12 -19 6.5 -41.5t-24.5 -34.5t-41.5 -6.5t-34.5 24.5q-68 108 -160 108z" />
<glyph unicode="&#x22;" d="M1471 202q0 -130 -64.5 -241t-175.5 -175.5t-241 -64.5t-241 64.5t-175.5 175.5t-64.5 241h167q0 -130 92 -222t222 -92t222 92t92 222t-92 222t-222 92v167q47 0 80.5 33.5t33.5 80.5t-33.5 80t-80.5 33t-80.5 -33t-33.5 -80h-167q0 116 82.5 198t198.5 82t198.5 -82 t82.5 -198q0 -52 -20 -99.5t-58 -70.5q127 -46 202.5 -165t75.5 -260zM1723 1207h167v-410h-167q0 47 -33.5 80t-80.5 33t-80.5 -33t-33.5 -80t33.5 -80.5t80.5 -33.5v-167q-116 0 -198.5 82.5t-82.5 198.5t82.5 198t198.5 82q33 0 66 -13.5t48 -37.5v181z" />
<glyph unicode="#" d="M1571 457q108 -41 169 -134.5t61 -207.5q0 -161 -113.5 -274.5t-274.5 -113.5h-815v540h829q25 0 42 17.5t17 41.5q0 25 -17 42t-42 17h-829v118h801q41 0 70.5 29.5t29.5 70.5q0 42 -29.5 71t-70.5 29h-801v224h815q112 0 191.5 -79.5t79.5 -191.5q0 -63 -28.5 -117 t-84.5 -82z" />
<glyph unicode="$" d="M614 1009h1173q43 0 73 -30t30 -73v-1173q0 -43 -30 -73.5t-73 -30.5h-1173q-43 0 -73.5 30.5t-30.5 73.5v1173q0 43 30.5 73t73.5 30zM785 32v524h-193v-110h83v-414h110zM730 616q38 0 65 27t27 65t-27 64.5t-65 26.5t-64.5 -26.5t-26.5 -64.5t26.5 -65t64.5 -27z M853 288v-110h72q78 0 133.5 55.5t55.5 133.5t-55.5 133.5t-133.5 55.5h-72v-110h72q33 0 56 -23t23 -56t-23 -56t-56 -23h-72zM1725 447h83v110h-205l-165 -313v313h-128l-292 -525h133l177 322v-322h110l177 322v-322h110v415z" />
<glyph unicode="%" d="M158 245q-8 -56 -39.5 -85t-99.5 -29h-32l-12 -89h-42l44 321h76q66 0 90 -28.5t15 -89.5zM116 245q7 48 -10.5 62.5t-58.5 14.5h-33l-21 -152h32q19 0 31 2t25.5 8.5t22 23t12.5 41.5zM414 692h158l-287 -650h-158zM959 692h158l-287 -650h-158zM1186 276h-42 q7 23 -5 39t-40 16q-53 0 -59 -44q-3 -20 11 -32t35.5 -20t43 -18.5t34 -34t8.5 -58.5q-7 -44 -37.5 -67t-77.5 -23q-50 0 -75 30.5t-8 92.5h42q-13 -43 1 -63.5t45 -20.5q60 0 66 51q4 26 -9.5 42.5t-35 25.5t-43 18.5t-34.5 28.5t-9 48q5 38 34 61t75 23q47 0 69 -26.5 t11 -68.5zM488 363h79q117 0 102 -127l-8 -68q-16 -126 -139 -126h-78zM617 168l10 68q6 45 -7.5 65.5t-58.5 20.5h-36l-34 -240h37q42 0 62.5 20t26.5 66zM2055 692h274q79 0 105.5 -49.5t-7.5 -119.5l-137 -311q-42 -97 -97.5 -133.5t-150.5 -36.5h-274zM2131 213l135 308 q10 19 3 35t-31 16h-75l-181 -409h77q31 0 44.5 9t27.5 41zM1775 692h162l-287 -650h-162l120 273h-126l-120 -273h-162l287 650h161l-112 -255h126z" />
<glyph unicode="&#x26;" d="M-8 24l53 385h91q80 0 108 -34t18 -107q-9 -67 -47.5 -102.5t-119.5 -35.5h-39l-14 -106h-50zM129 360h-39l-27 -182h39q22 0 36 2t31 10.5t27 27.5t14 50q8 57 -12.5 74.5t-68.5 17.5zM224 24l343 780h191l-343 -780h-191zM657 409h94q143 0 123 -153l-11 -79 q-22 -153 -166 -153h-95zM812 177l11 79q7 55 -9 79.5t-70 24.5h-44l-40 -287h43q51 0 76 23.5t33 80.5zM877 24l343 780h190l-343 -780h-190zM1493 305h-51q10 27 -4.5 46t-48.5 19q-67 0 -71 -52q-4 -24 13 -38.5t42.5 -24t51 -22.5t40.5 -40.5t9 -70.5q-7 -52 -43.5 -80 t-91.5 -28q-60 0 -90 37.5t-10 112.5h51q-15 -52 1 -76.5t53 -24.5q71 0 80 59q4 32 -12.5 52t-42 30.5t-51 21.5t-41.5 33.5t-11 58.5q8 46 42 73.5t88 27.5q57 0 84 -32t13 -82zM1509 24l343 780h191l-343 -780h-191zM1876 24l343 780h189l-343 -780h-189z" />
<glyph unicode="'" d="M1702 636h-79l-203 -206h-441l-202 206h-79q-36 0 -61 -86.5t-25 -209.5t25 -209.5t61 -86.5h79l202 207h441l203 -207h79q35 0 60.5 87t25.5 209q0 123 -25.5 209.5t-60.5 86.5zM1702 -123h-1004q-64 0 -112.5 32t-75.5 79.5t-44 113.5t-22.5 121.5t-6.5 116.5 q0 58 5 111t22 116t44 110t76 82.5t114 43.5h1004q54 0 97 -21.5t70 -59.5t46.5 -82.5t29 -100.5t13.5 -102t5 -97q0 -37 -2.5 -75t-10 -85t-19.5 -88.5t-32.5 -81.5t-47 -69t-65 -46.5t-84.5 -17.5z" />
<glyph unicode="(" d="M1890 205q0 -37 -58 -67.5t-170 -50.5q-5 -110 -45 -203.5t-103 -157t-144.5 -99t-169.5 -35.5q72 0 144.5 63t123 174.5t56.5 238.5q-182 -18 -324 -18t-324 18q6 -127 56.5 -238.5t123 -174.5t144.5 -63q-88 0 -169.5 35.5t-144.5 99t-103 157t-45 203.5 q-112 20 -170 50.5t-58 67.5q0 19 14.5 39.5t36 43.5t42.5 54t35.5 84.5t14.5 120.5q0 101 43.5 192.5t116.5 157.5t174.5 105t212.5 39t212.5 -39t174.5 -105t116.5 -157.5t43.5 -192.5q0 -67 14.5 -120.5t35.5 -84.5t42.5 -54t36 -43.5t14.5 -39.5z" />
<glyph unicode=")" d="M1200 -137q-111 0 -195.5 22.5t-128.5 56.5l129 468q69 -44 195 -44t195 44l129 -468q-44 -34 -128.5 -56.5t-195.5 -22.5zM528 923h1344l-157 -322h-342v-111q0 -22 -56 -38t-117 -16t-117 16t-56 38v111h-342zM1200 -208q219 0 344 78v-128q0 -53 -101 -91t-243 -38 t-243 38t-101 91v128q127 -78 344 -78z" />
<glyph unicode="*" d="M1311 614q0 -23 14.5 -40t34.5 -17h279q57 0 97.5 -42.5t40.5 -102.5q0 -61 -40.5 -103.5t-97.5 -42.5h-365q-19 0 -32 13t-13 32q0 18 13 31t32 13h365q20 0 34 17t14 40t-14 39.5t-34 16.5h-279q-57 0 -97.5 42.5t-40.5 103.5q0 60 40.5 103t97.5 43h331q19 0 32 -13 t13 -32t-13 -32t-32 -13h-331q-20 0 -34.5 -16.5t-14.5 -39.5zM692 355h232q59 0 100.5 46.5t41.5 111.5t-41.5 111t-100.5 46h-232q-19 0 -32 13t-13 32t13 32t32 13h232q96 0 164 -72.5t68 -174.5t-68 -174.5t-164 -72.5h-232q-19 0 -32 13t-13 32t13.5 33t31.5 11z M618 934h1164q45 0 76.5 -33t31.5 -80v-1018q0 -49 -32.5 -83t-79.5 -34q-46 0 -78.5 34t-32.5 83v287q-139 -26 -139 -219v-1q0 -18 -13 -31t-31 -13q-19 0 -32 13t-13 31v1q0 193 -139 219v-356q0 -18 -13 -31.5t-31 -13.5q-19 0 -32 13.5t-13 31.5v405q0 18 13 31t32 13 q174 0 228 -172q54 172 228 172q18 0 31 -13t13 -31v-336q0 -11 6.5 -19.5t15.5 -8.5t16 8.5t7 19.5v1018q0 10 -5.5 17t-13.5 7h-1164q-8 0 -13.5 -7t-5.5 -17v-1014q0 -11 6.5 -19.5t15.5 -8.5h303q58 0 100 46t42 111t-41.5 111.5t-100.5 46.5h-232q-19 0 -32 13t-13 32 q0 18 13 31t32 13h232q96 0 164 -72t68 -175q0 -102 -68 -174.5t-164 -72.5h-303q-44 0 -77.5 35.5t-33.5 82.5v1014q0 47 31.5 80.5t76.5 32.5z" />
<glyph unicode="+" d="M1077 309l-96 165h191q-18 -31 -33 -57t-24.5 -42t-16.5 -28.5t-10.5 -19t-6 -10.5t-3 -5.5t-1.5 -2.5zM1940 918q50 -86 -5 -182q-55 -94 -196 -154q-146 -60 -340 -60h-398q-194 0 -340 60q-141 60 -196 154q-55 95 -6 182q51 86 160 86q111 0 231 -93q88 -67 165 -175 q-141 0 -235 30q-21 7 -45 25q-57 40 -102 46q-27 4 -31 -2q-3 -7 14 -28q36 -46 125 -79q114 -41 260 -41h398q146 0 260 41q89 33 125 79q17 21 13 28q-2 6 -30 2q-44 -6 -102 -46q-27 -19 -45 -25q-95 -30 -235 -30q77 108 165 175q120 93 231 93q52 0 94 -22.5t65 -63.5 zM1228 474h191l-148 -255q-74 -127 -94 -246q-16 -93 6 -148q10 -25 17 -25t17 25q17 44 11 112q-3 34 1 51q21 97 91 220q55 -123 70 -231q20 -150 -36 -247q-26 -45 -66.5 -70t-87.5 -25t-87.5 25t-66.5 70q-56 95 -36 247q22 160 118 325z" />
<glyph unicode="," d="M1092 734l-99 -721h-109q-60 135 -60 327q0 182 91 340zM1415 734q74 0 125 -15q-89 -180 -77 -438q-19 -9 -46.5 -20.5t-44.5 -19t-34 -16.5t-24.5 -19.5t-7.5 -23.5h167q15 -92 44 -169h-456q-5 88 11.5 154t46.5 104t68 65t78 45t74 35t58.5 43t29.5 62q6 45 -38 45 q-27 0 -43 -26t-8 -77h-221q-1 145 78 208t220 63zM1999 350q0 -43 -10 -86t-37 -78t-65 -35h-303q-37 85 -37 199q0 115 37 199h303q38 0 65 -35t37 -78t10 -86zM1950 350q0 59 -20 100.5t-49 41.5t-49 -41.5t-20 -100.5t20.5 -100.5t48.5 -41.5t48.5 41.5t20.5 100.5z M513 549h264q-40 -85 -40 -205q0 -110 35 -193h-259q-39 0 -65.5 35t-36.5 78t-10 86t10 86t37 78t65 35z" />
<glyph unicode="-" d="M1092 734l-99 -721h-109q-60 135 -60 327q0 182 91 340zM1999 350q0 -43 -10 -86t-37 -78t-65 -35h-303q-37 85 -37 199q0 115 37 199h303q38 0 65 -35t37 -78t10 -86zM1950 350q0 59 -20 100.5t-49 41.5t-49 -41.5t-20 -100.5t20.5 -100.5t48.5 -41.5t48.5 41.5 t20.5 100.5zM513 549h264q-40 -85 -40 -205q0 -110 35 -193h-259q-39 0 -65.5 35t-36.5 78t-10 86t10 86t37 78t65 35zM1483 547h-115l-19 -83q68 20 122 18q-30 -227 36 -442q-67 -45 -194 -45q-142 0 -200 59t-28 203h222q-12 -59 -5.5 -76t34.5 -17q27 0 38.5 16t16.5 61 q13 92 -33.5 109.5t-136.5 -37.5l-117 55l96 348h339q-37 -73 -56 -169z" />
<glyph unicode="." d="M1602 -228l-91 93q110 24 171 91t61 153q0 103 -73.5 172.5t-185.5 69.5h-449l-115 117h564q77 0 113.5 37t36.5 98q0 59 -37 96t-113 37h-826l-115 118h941q124 0 195.5 -71.5t71.5 -179.5q0 -54 -34 -109.5t-82 -70.5q96 -27 159 -119.5t63 -194.5q0 -114 -69 -206.5 t-186 -130.5z" />
<glyph unicode="/" d="M1841 364q72 -72 77 -156q6 -91 -61 -154l-1 -1l-631 -485q-16 -12 -40.5 -20t-59.5 -5.5t-64 21.5l-1 1l-663 510l157 121q-67 49 -106 100t-39 119q0 76 60 112l637 490q48 36 100 38.5t103 -33.5l694 -533zM1162 943l-556 -417q45 -45 640 -502l605 465l-598 459 q-41 33 -91 -5zM549 75l567 -436q11 -8 25 -9t24 10q8 12 8 26.5t-6 27.5t-16.5 28t-22 27t-25.5 24.5t-23 19.5t-19 14l-1 1l-430 330zM1259 -289l537 412q34 25 30 79q-3 54 -60 105l-520 -400l-692 532q-17 14 -34.5 8t-17.5 -32q0 -35 25 -67.5t82 -76.5l507 -389 q37 -28 60 -48.5t48.5 -54.5t34.5 -68z" />
<glyph unicode="0" d="M1723 295h-157l78 -135q-177 -47 -361.5 -47t-419.5 47l-157 -265q-83 24 -132 71t-60.5 104t-1 114.5t41.5 110.5q100 -23 197 -39.5t214 -24.5t212.5 0t180 40.5t129.5 90.5l-545 135q17 86 50 153t71 104t74.5 56t67.5 19q56 0 90.5 -31.5t34.5 -84.5q0 -22 -13.5 -39 t-27 -24.5t-38.5 -18.5q269 36 421 -57q97 -59 107 -145q9 -77 -56 -134z" />
<glyph unicode="1" d="M386 849h506v-1000h-364v50h286v132h-156v50h156v132h-286v50h286v131h-156v50h156v132h-286v50h286v145h-350v-922h-78v1000zM1578 478q-26 0 -37 -20.5t-11 -71.5v-79q0 -50 11 -71t37 -21q25 0 36.5 19.5t11.5 66.5h68q0 -76 -27.5 -110t-88.5 -34q-62 0 -89 35 t-27 115v79q0 80 27 115t89 35q59 0 87.5 -31.5t28.5 -99.5h-68q0 73 -48 73zM1029 586v68h73v-68h-73zM1031 166v361h68v-361h-68zM1228 166h-68v220q0 79 28 114.5t90 35.5t90 -35.5t28 -114.5v-220h-68v220q0 51 -12 71.5t-38 20.5t-38 -20.5t-12 -71.5v-220zM1887 536 q100 0 100 -147v-223h-68v230q0 82 -48 82q-17 0 -29.5 -13.5t-17.5 -35.5v-263h-68v481h68v-151q16 40 63 40z" />
<glyph unicode="2" d="M386 849h506v-1000h-364v50h286v132h-156v50h156v132h-286v50h286v131h-156v50h156v132h-286v50h286v145h-350v-922h-78v1000zM1603 536q55 0 80 -30t25 -97v-243h-67v243q0 36 -9 53t-33 17q-45 0 -45 -70v-243h-68v243q0 70 -45 70q-24 0 -33 -17t-9 -53v-243h-67v243 q0 67 25 97t80 30q73 0 83 -59q10 59 83 59zM1147 478q-26 0 -37 -20.5t-11 -71.5v-79q0 -50 11 -71t37 -21q25 0 36.5 19.5t11.5 66.5h68q0 -76 -27.5 -110t-88.5 -34t-88.5 35t-27.5 115v79q0 80 27.5 115t88.5 35q59 0 87.5 -31.5t28.5 -99.5h-68q0 73 -48 73z" />
<glyph unicode="3" d="M1198 601q104 0 178 -73.5t74 -178.5q0 -104 -74 -177.5t-178 -73.5q-65 0 -121 31.5t-89 85.5h-262q-35 -54 -90.5 -85.5t-121.5 -31.5q-103 0 -176 73.5t-73 177.5q0 105 73 178.5t176 73.5q66 0 121.5 -31t90.5 -84h262q34 53 89.5 84t120.5 31zM514 261q38 0 64 25.5 t26 62.5t-26 64t-64 27q-36 0 -62 -27t-26 -64t25.5 -62.5t62.5 -25.5zM1198 261q38 0 64.5 25.5t26.5 62.5t-26.5 64t-64.5 27q-36 0 -62 -27t-26 -64t25.5 -62.5t62.5 -25.5zM1882 601q105 0 178.5 -73.5t73.5 -178.5q0 -104 -73.5 -177.5t-178.5 -73.5q-65 0 -121 31.5 t-89 85.5h-154q27 65 27 134q0 72 -27 137h154q33 53 89.5 84t120.5 31zM1882 261q39 0 65 25.5t26 62.5t-26.5 64t-64.5 27q-36 0 -61.5 -27t-25.5 -64t25.5 -62.5t61.5 -25.5z" />
<glyph unicode="4" d="M1545 728l103 47q47 -74 71.5 -167t23.5 -196t-44.5 -210t-127.5 -195l46 -103q-120 -73 -259 -89.5t-273 26t-236 139.5l-103 -46q-46 74 -70.5 167t-23 196t44.5 210t126 195l-44 103q74 47 166.5 71.5t195 23.5t209.5 -44.5t195 -127.5zM1627 682q-17 0 -28.5 -12 t-11.5 -28q0 -17 11.5 -29t28.5 -12t29 12t12 29t-12 28.5t-29 11.5zM1630 355q0 157 -103 278l-232 -103q49 -28 70 -66q265 -112 265 -109zM1195 572l270 121q-79 64 -181 85zM1087 523l111 264q-158 0 -280 -103l105 -232q24 46 64 71zM911 824q-17 0 -29.5 -11.5 t-12.5 -28.5q0 -16 12.5 -28t29.5 -12q16 0 28 12t12 28q0 17 -12 28.5t-28 11.5zM980 352l-121 270q-64 -79 -85 -181zM768 26q16 0 28 12t12 28q0 17 -12 29.5t-28 12.5q-17 0 -28.5 -12.5t-11.5 -29.5q0 -16 11.5 -28t28.5 -12zM868 76l232 103q-45 26 -71 66l-264 110 q0 -160 103 -279zM1200 137l-271 -121q79 -64 181 -85zM1307 186l-114 -264q159 0 283 103l-103 232q-27 -45 -66 -71zM1485 -116q17 0 28.5 12t11.5 29t-11.5 28.5t-28.5 11.5t-29 -11.5t-12 -28.5t12 -29t29 -12zM1415 357l121 -271q65 84 84 182z" />
<glyph unicode="5" d="M1221 728l103 47q47 -74 71.5 -167t23.5 -196t-44.5 -210t-127.5 -195l46 -103q-120 -73 -259 -89.5t-273 26t-236 139.5l-103 -46q-46 74 -70.5 167t-23 196t44.5 210t126 195l-44 103q74 47 166.5 71.5t195 23.5t209.5 -44.5t195 -127.5zM1303 682q-17 0 -28.5 -12 t-11.5 -28q0 -17 11.5 -29t28.5 -12t29 12t12 29t-12 28.5t-29 11.5zM1306 355q0 157 -103 278l-232 -103q49 -28 70 -66q265 -112 265 -109zM871 572l270 121q-79 64 -181 85zM763 523l111 264q-158 0 -280 -103l105 -232q24 46 64 71zM587 824q-17 0 -29.5 -11.5 t-12.5 -28.5q0 -16 12.5 -28t29.5 -12q16 0 28 12t12 28q0 17 -12 28.5t-28 11.5zM656 352l-121 270q-64 -79 -85 -181zM444 26q16 0 28 12t12 28q0 17 -12 29.5t-28 12.5q-17 0 -28.5 -12.5t-11.5 -29.5q0 -16 11.5 -28t28.5 -12zM544 76l232 103q-45 26 -71 66l-264 110 q0 -160 103 -279zM876 137l-271 -121q79 -64 181 -85zM983 186l-114 -264q159 0 283 103l-103 232q-27 -45 -66 -71zM1161 -116q17 0 28.5 12t11.5 29t-11.5 28.5t-28.5 11.5t-29 -11.5t-12 -28.5t12 -29t29 -12zM1091 357l121 -271q65 84 84 182zM2072 300h-341l74 -75 l-67 -67l-193 192l193 192l67 -68l-79 -79h346v-95z" />
<glyph unicode="6" d="M1863 728l103 47q47 -74 71.5 -167t23.5 -196t-44.5 -210t-127.5 -195l46 -103q-120 -73 -259 -89.5t-273 26t-236 139.5l-103 -46q-46 74 -70.5 167t-23 196t44.5 210t126 195l-44 103q74 47 166.5 71.5t195 23.5t209.5 -44.5t195 -127.5zM1945 682q-17 0 -28.5 -12 t-11.5 -28q0 -17 11.5 -29t28.5 -12t29 12t12 29t-12 28.5t-29 11.5zM1948 355q0 157 -103 278l-232 -103q49 -28 70 -66q265 -112 265 -109zM1513 572l270 121q-79 64 -181 85zM1405 523l111 264q-158 0 -280 -103l105 -232q24 46 64 71zM1229 824q-17 0 -29.5 -11.5 t-12.5 -28.5q0 -16 12.5 -28t29.5 -12q16 0 28 12t12 28q0 17 -12 28.5t-28 11.5zM1298 352l-121 270q-64 -79 -85 -181zM1086 26q16 0 28 12t12 28q0 17 -12 29.5t-28 12.5q-17 0 -28.5 -12.5t-11.5 -29.5q0 -16 11.5 -28t28.5 -12zM1186 76l232 103q-45 26 -71 66 l-264 110q0 -160 103 -279zM1518 137l-271 -121q79 -64 181 -85zM1625 186l-114 -264q159 0 283 103l-103 232q-27 -45 -66 -71zM1803 -116q17 0 28.5 12t11.5 29t-11.5 28.5t-28.5 11.5t-29 -11.5t-12 -28.5t12 -29t29 -12zM1733 357l121 -271q65 84 84 182zM680 300h-341 v95h346l-79 79l67 68l193 -192l-193 -192l-67 67z" />
<glyph unicode="7" d="M1746 300h-1093l154 -155l-67 -67l-273 272l273 272l67 -68l-159 -159h1103l-159 159l67 68l273 -272l-273 -272l-67 67z" />
<glyph unicode="8" d="M749 -139l-104 1v972h104v-973zM1564 -34l-727 1v761h727v-762zM1651 834h104v-973h-104v973zM1333 675h-30h-195l-57 -339h132l-155 -349l385 392h-204z" />
<glyph unicode="9" d="M472 -346q249 349 249 647q0 203 -126 342.5t-354 190.5q96 0 204.5 -15.5t227.5 -52.5t213.5 -91t156 -139.5t61.5 -189.5q0 -58 -24.5 -120t-61 -115t-94 -111.5t-108.5 -102t-121.5 -94t-116 -80.5t-106.5 -69zM574 834h1584l-725 -508q-24 78 -64 143.5t-90 115 t-114 89t-131.5 66t-146 46.5t-153.5 31t-160 17z" />
<glyph unicode=":" d="M1301 139l-1 -147h367v147q0 18 13 31t32 13q18 0 31 -13t13 -31v-336q0 -11 6.5 -19.5t15.5 -8.5t16 8.5t7 19.5v1018q0 10 -5.5 17t-13.5 7h-1164q-8 0 -13.5 -7t-5.5 -17v-1014q0 -11 6.5 -19.5t15.5 -8.5h303q58 0 100 46t42 111t-41.5 111.5t-100.5 46.5h-232 q-19 0 -32 13t-13 32q0 18 13 31t32 13h232q96 0 164 -72t68 -175q0 -102 -68 -174.5t-164 -72.5h-303q-44 0 -77.5 35.5t-33.5 82.5v1014q0 47 31.5 80.5t76.5 32.5h1164q45 0 76.5 -33t31.5 -80v-1018q0 -49 -32.5 -83t-79.5 -34q-46 0 -78.5 34t-32.5 83v100h-367v-169 q0 -18 -13 -31.5t-31 -13.5q-19 0 -32 13.5t-13 31.5v405q0 18 13 31t32 13t32 -13t13 -31zM692 355h232q59 0 100.5 46.5t41.5 111.5t-41.5 111t-100.5 46h-232q-19 0 -32 13t-13 32t13 32t32 13h232q96 0 164 -72.5t68 -174.5t-68 -174.5t-164 -72.5h-232q-19 0 -32 13 t-13 32t13.5 33t31.5 11zM1484 403q-19 0 -32 13t-13 31v1q0 193 -139 219v-356q0 -18 -13 -31.5t-31 -13.5q-19 0 -32 13.5t-13 31.5v405q0 18 13 31t32 13q174 0 228 -172q54 172 228 172q19 0 32 -13t13 -31v-405q0 -18 -13 -31.5t-32 -13.5q-18 0 -31 13.5t-13 31.5v356 q-139 -26 -139 -219v-1q0 -18 -13 -31t-32 -13z" />
<glyph unicode=";" d="M847 578h1070v-465h-1070v93h383v93h-383v93h383v93h-383v93zM759 722v-753h-104v753h104z" />
<glyph unicode="&#x3c;" d="M892 738l-325 -237q38 -21 61.5 -60t23.5 -85q0 -68 -48.5 -116.5t-116.5 -48.5t-116.5 48.5t-48.5 116.5q0 86 70 136l443 324q85 59 182 59h145v-96h-145q-27 0 -65.5 -12.5t-59.5 -28.5zM1769 534l308 -80v-196l-308 -80v130h-785v-130l-308 80v196l308 80v-130h785 v130z" />
<glyph unicode="=" d="M2036 400h341v-95h-346l79 -79l-67 -68l-193 192l193 192l67 -67zM592 738l-325 -237q38 -21 61.5 -60t23.5 -85q0 -68 -48.5 -116.5t-116.5 -48.5t-116.5 48.5t-48.5 116.5q0 86 70 136l443 324q85 59 182 59h145v-96h-145q-27 0 -65.5 -12.5t-59.5 -28.5zM1469 534 l308 -80v-196l-308 -80v130h-785v-130l-308 80v196l308 80v-130h785v130z" />
<glyph unicode="&#x3e;" d="M34 400h341l-74 75l67 67l193 -192l-193 -192l-67 68l79 79h-346v95zM1180 738l-325 -237q38 -21 61.5 -60t23.5 -85q0 -68 -48.5 -116.5t-116.5 -48.5t-116.5 48.5t-48.5 116.5q0 86 70 136l443 324q85 59 182 59h145v-96h-145q-27 0 -65.5 -12.5t-59.5 -28.5zM2057 534 l308 -80v-196l-308 -80v130h-785v-130l-308 80v196l308 80v-130h785v130z" />
<glyph unicode="?" d="M614 1009h1173q43 0 73 -30t30 -73v-1173q0 -43 -30 -73.5t-73 -30.5h-1173q-43 0 -73.5 30.5t-30.5 73.5v1173q0 43 30.5 73t73.5 30zM1412 -241q129 103 193 208t59.5 229t-88.5 259q-23 38 -55.5 74t-60.5 61.5t-57 52t-48 50.5t-30 51.5t-6 61.5t27 74 q-265 -210 -248 -511q-24 86 -75.5 142.5t-114.5 75.5q45 -49 -59 -183q-69 -86 -88 -178t9 -175.5t90 -158.5t154 -137q-36 53 -18 104.5t76 93.5q114 84 97 221q28 -13 49 -41.5t29.5 -60t6 -62t-16.5 -47.5q42 23 70 63t33 92q61 -31 92.5 -83t31.5 -104.5t-14 -98 t-38 -73.5z" />
<glyph unicode="A" d="M1401 802h-403v71h403v-71zM1004 363q-49 0 -68 42h-229v70h229q20 40 68 40q46 0 68 -40h257q20 40 68 40q46 0 68 -40h228v-70h-228q-21 -42 -68 -42q-49 0 -68 42h-257q-21 -42 -68 -42zM1200 560q-48 0 -68 43h-229v70h229q19 41 68 41t68 -41h229v-70h-229 q-20 -43 -68 -43zM807 164q-46 0 -68 41h-228v71h228q25 41 68 41q22 0 40.5 -11.5t27.5 -29.5h257q9 18 27.5 29.5t40.5 11.5q21 0 40 -11.5t28 -29.5h257q21 41 68 41q44 0 67 -41h229v-71h-229q-20 -41 -67 -41q-49 0 -68 41h-257q-19 -41 -68 -41t-68 41h-257 q-19 -41 -68 -41zM2085 70v-70h-227q-22 -42 -69 -42q-46 0 -68 42h-256q-22 -42 -68 -42q-48 0 -68 42h-257q-22 -42 -68 -42q-48 0 -68 42h-258q-22 -41 -67 -41q-46 0 -68 41h-228v70h227q21 44 69 44t69 -44h256q20 44 68 44q47 0 68 -44h257q20 44 68 44q47 0 68 -44 h256q21 44 68 44q48 0 69 -44h227z" />
<glyph unicode="B" d="M515 -184q-96 0 -163.5 68.5t-67.5 164.5q0 95 67.5 163t163.5 68q32 0 67 -10l882 -134q-87 103 -87 238q0 142 95 247l-1064 -127l-11 93l1277 153q45 9 77 9q155 0 265 -110t110 -265t-110 -264.5t-265 -109.5q-47 0 -92 12l-938 142q26 -50 26 -105q0 -96 -68 -164.5 t-164 -68.5zM1471 374q0 -116 82 -198t198 -82t198.5 82t82.5 198t-82.5 198.5t-198.5 82.5t-198 -82.5t-82 -198.5zM378 48q0 -58 40 -98t98 -40t97.5 40t39.5 98t-39.5 98t-97.5 40t-98 -40t-40 -98z" />
<glyph unicode="C" d="M2045 548v-396h-220v-94h-95v94h-557v-94h-96v94h-219v396h219v94h96v-94h557v94h95v-94h220zM953 248h124v205h-124v-205zM1173 248h557v205h-557v-205zM1949 248v205h-124v-205h124zM237 400h341l-74 75l67 67l193 -192l-193 -192l-67 68l79 79h-346v95z" />
<glyph unicode="D" d="M237 152v396h220v94h95v-94h557v94h96v-94h219v-396h-219v-94h-96v94h-557v-94h-95v94h-220zM1205 248h124v205h-124v-205zM552 248h557v205h-557v-205zM333 453v-205h124v205h-124zM1704 400h341v-95h-346l79 -79l-67 -68l-193 192l193 192l67 -67z" />
<glyph unicode="E" d="M1793 548v-396h-220v-94h-95v94h-557v-94h-96v94h-219v396h219v94h96v-94h557v94h95v-94h220zM701 248h124v205h-124v-205zM921 248h557v205h-557v-205zM1697 248v205h-124v-205h124z" />
<glyph unicode="F" d="M909 116h698v-116h-816v816h118v-603l179 240q13 18 33 11l264 -84l167 212q8 9 20.5 10.5t21.5 -5.5t10.5 -20t-5.5 -22l-181 -228q-12 -16 -32 -9l-263 85z" />
<glyph unicode="G" d="M1067 427l428 -427l-100 -100l-427 427q-71 71 -83 154t47 165q-42 48 -40 115.5t47 112.5q50 51 120 51t120 -51q48 -50 48 -119.5t-48 -117.5q-53 -54 -123 -47q-71 -81 11 -163z" />
<glyph unicode="H" d="M1319 387h563v-95h-563v95zM1319 586l563 291v-109l-563 -291v109zM1319 93v109l563 -290v-110zM806 493l272 302h108v-911h-108l-272 302h-288v307h288z" />
<glyph unicode="I" d="M1887 476v-249h-147v-219h-1107v686h1107v-218h147zM1645 104v495h-917v-495h917zM1474 179h-671v345h326z" />
<glyph unicode="J" d="M1819 731q40 0 68.5 -28t28.5 -68v-591q0 -40 -28.5 -68t-68.5 -28h-1239q-40 0 -68 28t-28 68v591q0 40 28 68t68 28h1239zM1136 389v123q0 41 -29.5 70.5t-70.5 29.5h-329q-41 0 -70.5 -29.5t-29.5 -70.5v-123q0 -41 29.5 -70t70.5 -29h329q41 0 70.5 29t29.5 70z M1365 86q41 0 70.5 29.5t29.5 70.5t-29.5 70t-70.5 29t-70.5 -29t-29.5 -70t29.5 -70.5t70.5 -29.5zM1365 413q41 0 70.5 29t29.5 70t-29.5 70.5t-70.5 29.5t-70.5 -29.5t-29.5 -70.5t29.5 -70t70.5 -29zM1694 86q41 0 70.5 29.5t29.5 70.5t-29.5 70t-70.5 29t-70.5 -29 t-29.5 -70t29.5 -70.5t70.5 -29.5zM1694 413q41 0 70.5 29t29.5 70t-29.5 70.5t-70.5 29.5t-70.5 -29.5t-29.5 -70.5t29.5 -70t70.5 -29z" />
<glyph unicode="K" d="M495 0h-275l200 471h272l-77 -183l229 183h188l-225 -186l129 -169l163 411h-387l31 85h1050l-25 -85h-391l-110 -319l263 263h241l-39 -180l203 180h252l-105 -471h-249l26 169l-191 -169h-232l30 171l-183 -171h-592l-127 169zM454 -230q0 -36 -35 -36h-33v130h28 q38 0 38 -34q0 -24 -20 -27q22 -3 22 -33zM400 -191h17q21 0 21 21q0 13 -5 17.5t-19 4.5h-14v-43zM417 -204h-17v-50h19q22 0 22 24q0 26 -24 26zM524 -266h-13v130h13v-130zM653 -136l-32 -48l37 -82h-15l-30 68l-17 -23v-45h-13v130h13v-62l41 62h16zM719 -254h49v-12 h-62v130h58v-12h-45v-43h33v-13h-33v-50zM914 -266h-13v130h13v-130zM1041 -136v-130h-17l-38 102v-102h-14v130h18l38 -102v102h13zM1100 -136h28q38 0 38 -45v-45q0 -40 -38 -40h-28v130zM1153 -226v47q0 31 -25 31h-15v-106h15q25 0 25 28zM1224 -231v95h14v-95 q0 -25 20 -25q21 0 21 25v95h13v-95q0 -38 -34 -38t-34 38zM1380 -133q36 0 33 -42h-13q1 29 -20 29q-20 0 -20 -17q0 -14 22 -27q33 -16 33 -44q0 -35 -36 -35q-33 0 -33 40v11h13v-11q0 -27 20 -27q22 0 22 22q0 18 -23 32q-11 6 -16 9.5t-10 11t-5 18.5q0 13 8.5 21.5 t24.5 8.5zM1453 -136h64v-12h-25v-118h-13v118h-26v12zM1566 -136h28q40 0 40 -40v-8q0 -26 -17 -35l16 -47h-15q-2 6 -6.5 20.5t-6.5 22.5q-3 -1 -11 -1h-15v-42h-13v130zM1579 -148v-63h15q26 0 26 27v8q0 28 -26 28h-15zM1704 -266h-13v130h13v-130zM1776 -254h49v-12 h-62v130h58v-12h-45v-43h33v-13h-33v-50zM1904 -133q35 0 34 -41h-14q1 28 -20 28q-19 0 -19 -17q0 -15 22 -27q32 -17 32 -44q0 -35 -35 -35q-34 0 -34 40v11h14v-11q0 -27 20 -27q22 0 22 22q0 18 -24 32q-11 6 -16 9.5t-10 11t-5 18.5q0 13 8.5 21.5t24.5 8.5z" />
<glyph unicode="L" d="M507 247v280h281v-280h-281zM1059 247v280h281v-280h-281zM1611 527h281v-280h-281v280z" />
<glyph unicode="M" d="M1802 465h-533v-82h493l-60 -121h-433v-82h393l-59 -121h-334v-82h294l-99 -202h-528l-99 202h294v82h-334l-59 121h393v82h-433l-60 121h493v82h-533v238h272l159 168h342l159 -168h272v-238z" />
<glyph unicode="N" d="M1594 493h288v-307h-288l-272 -302h-108v911h108zM1081 93l-563 -291v110l563 290v-109zM1081 586v-109l-563 291v109zM1081 387v-95h-563v95h563z" />
<glyph unicode="O" d="M634 352v281h562v-155l454 135q26 28 51 34q46 14 88.5 -8.5t55.5 -68.5q14 -47 -9 -89.5t-69 -55.5q-36 -10 -70.5 2.5t-55.5 42.5l-445 -132v-100h483q11 8 22 12q46 14 88.5 -9t55.5 -69q14 -46 -9 -88.5t-69 -55.5q-45 -13 -86.5 9t-55.5 67h-429v-104h-848v224z" />
<glyph unicode="P" d="M522 474q0 53 37 90.5t90 37.5q44 0 77.5 -28t43.5 -71q77 -9 144.5 -8.5t111.5 6t94 22t75 28t73 34.5q66 34 109 52t124 35t173 17q86 0 145 -54t59 -133v-502h-639q0 75 3 125t14 96.5t26.5 74.5t47 52t68 36t97 20.5t127 11.5t164.5 3v83q0 44 -34 69.5t-78 25.5 q-83 0 -155 -15.5t-108.5 -31t-101.5 -47.5q-40 -20 -64.5 -31.5t-67 -27.5t-81 -23.5t-90.5 -14t-114 -4.5t-134 10q-38 -65 -109 -65q-53 0 -90 37.5t-37 89.5z" />
<glyph unicode="Q" d="M1667 518l-114 -30l-12 47l-796 -670l-745 112l524 493l-56 214l113 30l27 -103l856 216l-10 41l113 30zM558 341l-301 -284l391 -58zM638 497l117 -459q124 105 374 314.5t374 314.5l-9 46zM1256 -64q4 -1 11 -2.5t26 -2t35.5 3.5t34.5 18.5t29 38.5q-2 6 -4.5 15.5 t-6 37.5t-3 54t9.5 58.5t27.5 56.5t55.5 42t88 22q33 3 77 -12.5t84.5 -50t48 -91t-34.5 -135.5q-22 -38 -71 -72q-150 -103 -366 -2q-20 10 -41 21zM1621 67q20 -12 43.5 -6.5t36.5 26.5q12 20 6 44t-27 37q-20 12 -43 6t-36 -27q-13 -20 -7 -43.5t27 -36.5zM2085 731 l-316 -420q-11 -14 -29 -16.5t-30 7.5q-13 9 -15.5 25t8.5 32l316 421q11 14 27.5 16t30.5 -8q13 -10 15.5 -27t-7.5 -30zM2089 352v-472h-68v373l-61 -32v69z" />
<glyph unicode="R" d="M1667 518l-114 -30l-12 47l-796 -670l-745 112l524 493l-56 214l113 30l27 -103l856 216l-10 41l113 30zM558 341l-301 -284l391 -58zM638 497l117 -459q124 105 374 314.5t374 314.5l-9 46zM1256 -64q4 -1 11 -2.5t26 -2t35.5 3.5t34.5 18.5t29 38.5q-2 6 -4.5 15.5 t-6 37.5t-3 54t9.5 58.5t27.5 56.5t55.5 42t88 22q33 3 77 -12.5t84.5 -50t48 -91t-34.5 -135.5q-22 -38 -71 -72q-150 -103 -366 -2q-20 10 -41 21zM1621 67q20 -12 43.5 -6.5t36.5 26.5q12 20 6 44t-27 37q-20 12 -43 6t-36 -27q-13 -20 -7 -43.5t27 -36.5zM2085 731 l-316 -420q-11 -14 -29 -16.5t-30 7.5q-13 9 -15.5 25t8.5 32l316 421q11 14 27.5 16t30.5 -8q13 -10 15.5 -27t-7.5 -30zM1976 -62h169v-58h-236q-11 67 2 116.5t40 78.5t56 52t50.5 50.5t21.5 60.5q0 26 -14 41t-39 15q-69 0 -52 -93h-68q-11 78 23 114.5t97 36.5 q55 0 88 -29t33 -85q0 -41 -19.5 -75t-46.5 -57t-53.5 -46t-42 -53.5t-9.5 -68.5z" />
<glyph unicode="S" d="M1667 518l-114 -30l-12 47l-796 -670l-745 112l524 493l-56 214l113 30l27 -103l856 216l-10 41l113 30zM558 341l-301 -284l391 -58zM638 497l117 -459q124 105 374 314.5t374 314.5l-9 46zM1256 -64q4 -1 11 -2.5t26 -2t35.5 3.5t34.5 18.5t29 38.5q-2 6 -4.5 15.5 t-6 37.5t-3 54t9.5 58.5t27.5 56.5t55.5 42t88 22q33 3 77 -12.5t84.5 -50t48 -91t-34.5 -135.5q-22 -38 -71 -72q-150 -103 -366 -2q-20 10 -41 21zM1621 67q20 -12 43.5 -6.5t36.5 26.5q12 20 6 44t-27 37q-20 12 -43 6t-36 -27q-13 -20 -7 -43.5t27 -36.5zM2085 731 l-316 -420q-11 -14 -29 -16.5t-30 7.5q-13 9 -15.5 25t8.5 32l316 421q11 14 27.5 16t30.5 -8q13 -10 15.5 -27t-7.5 -30zM1921 343h239v-44l-97 -121q5 1 13 1q41 0 65 -32.5t24 -83.5v-65q0 -64 -33 -95.5t-89 -31.5q-57 0 -90.5 31t-33.5 96v53h68v-52q0 -30 15 -50 t41 -20q55 0 55 70v52q0 84 -58 84q-19 0 -38 -10l-25 30l96 130h-152v58z" />
<glyph unicode="T" d="M386 849h506v-1000h-364v50h286v132h-156v50h156v132h-286v50h286v131h-156v50h156v132h-286v50h286v145h-350v-922h-78v1000zM1303 610q-49 0 -84 35t-35 84t35 84t84 35t84 -35t35 -84t-35 -84t-84 -35zM1160 -151v323l-77 359h428l-77 -359v-323h-78v323h-118v-323 h-78z" />
<glyph unicode="U" d="M386 849h506v-1000h-364v50h286v132h-156v50h156v132h-286v50h286v131h-156v50h156v132h-286v50h286v145h-350v-922h-78v1000zM1303 610q-49 0 -84 35t-35 84t35 84t84 35t84 -35t35 -84t-35 -84t-84 -35zM1391 531l142 -490h-99v-192h-78v192h-119v-192h-78v192h-99 l142 490h189z" />
<glyph unicode="V" d="M494 603h1158q152 0 262.5 -108.5t110.5 -264.5q0 -160 -116 -270l-189 64q65 22 107 78.5t42 127.5q0 90 -63.5 153.5t-153.5 63.5q-47 0 -89.5 -18t-77.5 -54.5t-49 -102t0 -151.5l-1061 363z" />
<glyph unicode="W" d="M1345 877h171l-120 -382l41 -25l-13 -470h-560l55 124h114l145 349l46 22z" />
<glyph unicode="X" d="M891 -37l-337 -41v63l229 119q76 232 234.5 407t372.5 270.5t456 100.5v-141q-336 0 -598.5 -211t-356.5 -567zM1846 670v-156q-121 0 -235 -37.5t-205.5 -107t-161 -161t-107 -205.5t-37.5 -235h-156q0 50 6 99l38 -4q3 36 17 103l-37 9q10 46 31 105l37 -14 q17 48 42 97l-34 17q26 51 55 94l32 -22q17 27 65 84l-29 26q42 47 78 78l25 -29q43 38 82 65l-22 32q39 29 93 57l18 -34q44 24 96 43l-14 36q59 22 105 34l9 -38q72 14 104 19l-6 38q52 7 111 7z" />
<glyph unicode="Y" d="M1719 812l131 -90l-467 -680l-131 90l236 343h-566l236 -343l-131 -90l-299 433h-179v159h1048z" />
<glyph unicode="Z" />
<glyph unicode="[" d="M511 434v90h357q98 0 156.5 -46t58.5 -130q0 -86 -56 -131.5t-159 -45.5h-357v219h113v-129h244q108 0 108 87q0 47 -28 66.5t-80 19.5h-357zM1147 435v89h120v-89h-120zM1147 171v219h120v-219h-120zM1452 260h435v-89h-552v33q0 89 53.5 137.5t162.5 48.5h189 q15 0 22.5 1t14 6.5t6.5 16.5q0 10 -6.5 15t-14 5.5t-23.5 0.5h-393v89h387q72 0 115.5 -28t43.5 -82q0 -53 -44 -80t-116 -27h-185q-47 0 -71 -14t-24 -33z" />
<glyph unicode="\" d="M944 -108v171q0 37 10.5 68.5t36 61.5t76.5 47.5t124 17.5h244v-105h-244q-78 0 -109.5 -20t-31.5 -70v-171q0 -49 31.5 -68.5t109.5 -19.5h138v160h106v-266h-244q-73 0 -124 17.5t-76.5 47.5t-36 61t-10.5 68zM1152 709v-170q0 -37 -10.5 -68.5t-36 -61.5t-76.5 -47.5 t-124 -17.5h-229v105h229q79 0 110.5 20t31.5 70v170q0 50 -31 69.5t-111 19.5h-229v105h229q73 0 124 -17t76.5 -47t36 -61.5t10.5 -68.5zM1352 709v-170q0 -50 31.5 -70t110.5 -20h229v-105h-229q-47 0 -87 8.5t-78 28.5t-60 60.5t-22 97.5v170q0 37 10.5 68.5t36 61.5 t76.5 47t124 17h229v-105h-229q-79 0 -110.5 -20t-31.5 -69z" />
<glyph unicode="]" d="M583 70q83 145 211 253l598 -253h-809zM1817 477q-140 5 -243 -30t-147 -93.5t-32 -134.5t88 -149h-5l-419 408q356 136 758 -1z" />
<glyph unicode="a" d="M1667 518l-114 -30l-12 47l-796 -670l-745 112l524 493l-56 214l113 30l27 -103l856 216l-10 41l113 30zM558 341l-301 -284l391 -58zM760 32l748 629l-14 52l-856 -216z" />
<glyph unicode="b" d="M1667 518l-114 -30l-12 47l-796 -670l-745 112l524 493l-56 214l113 30l27 -103l856 216l-10 41l113 30zM558 341l-301 -284l391 -58zM760 32l748 629l-14 52l-856 -216zM2022 799h-74v-899h74v-51h-340v51h216v899h-216v50h340v-50z" />
<glyph unicode="c" d="M1667 518l-114 -30l-12 47l-796 -670l-745 112l524 493l-56 214l113 30l27 -103l856 216l-10 41l113 30zM558 341l-301 -284l391 -58zM638 497l117 -459q124 105 374 314.5t374 314.5l-9 46zM1256 -64q4 -1 11 -2.5t26 -2t35.5 3.5t34.5 18.5t29 38.5q-2 6 -4.5 15.5 t-6 37.5t-3 54t9.5 58.5t27.5 56.5t55.5 42t88 22q33 3 77 -12.5t84.5 -50t48 -91t-34.5 -135.5q-22 -38 -71 -72q-150 -103 -366 -2q-20 10 -41 21zM1621 67q20 -12 43.5 -6.5t36.5 26.5q12 20 6 44t-27 37q-20 12 -43 6t-36 -27q-13 -20 -7 -43.5t27 -36.5zM2085 731 l-316 -420q-11 -14 -29 -16.5t-30 7.5q-13 9 -15.5 25t8.5 32l316 421q11 14 27.5 16t30.5 -8q13 -10 15.5 -27t-7.5 -30z" />
<glyph unicode="d" d="M1046 893l65 -65l-45 -46l406 -406l-9 -201l191 -192l-158 -158l-191 192l-202 -10l-406 407l-46 -46l-65 65l151 151l-102 103l158 158l102 -103z" />
<glyph unicode="e" d="M2037 474q0 -52 -37.5 -89.5t-89.5 -37.5q-71 0 -109 65q-72 -8 -134 -10t-114 4.5t-90.5 14t-81 23.5t-67 27.5t-64.5 31.5q-65 32 -101.5 47.5t-108.5 31t-155 15.5q-44 0 -78 -25.5t-34 -69.5v-83q98 0 164.5 -3t127 -11.5t97 -20.5t68 -36t47 -52t26.5 -74.5 t14 -96.5t3 -125h-639v502q0 79 59 133t145 54q92 0 173 -17t124 -35t109 -52q48 -23 73 -34.5t75 -28t94 -22t111.5 -6t144.5 8.5q10 43 43.5 71t77.5 28q53 0 90 -37.5t37 -90.5z" />
<glyph unicode="f" d="M1293 694l-24 -24l175 -175l24 24l326 -327l-116 -116l-326 327l24 24l-175 174l-24 -23l-61 61l-166 -58l-56 -169l56 -56l-24 -23l175 -175l23 23l327 -326l-116 -116l-327 326l24 24l-175 175l-23 -24l-131 130l70 71l60 175l-152 152l82 81l151 -151l188 65l61 61z " />
<glyph unicode="g" d="M1564 352l286 -128v-224h-848v104h-429q-14 -45 -55.5 -67t-86.5 -9q-46 13 -69 55.5t-9 88.5q13 46 55.5 69t88.5 9q11 -4 22 -12h483v100l-445 132q-21 -30 -55.5 -42.5t-70.5 -2.5q-46 13 -69 55.5t-9 89.5q13 46 55.5 68.5t88.5 8.5q25 -6 51 -34l454 -135v155h562 v-281z" />
<glyph unicode="h" d="M1725 406q55 -42 55 -109q0 -69 -55 -109q55 -42 55 -109q0 -60 -42 -102t-102 -42h-168v-194h-537v194h-168q-59 0 -101.5 42t-42.5 102q0 66 55 109q-55 42 -55 109q0 66 55 109q-55 42 -55 109q0 59 42.5 101t101.5 42h169v194h536v-194h168q60 0 102 -42t42 -101 q0 -69 -55 -109zM1693 515q0 23 -16.5 39.5t-40.5 16.5h-873q-23 0 -40 -16.5t-17 -39.5q0 -24 17 -40.5t40 -16.5h873q24 0 40.5 16.5t16.5 40.5zM1693 79q0 23 -16.5 39.5t-40.5 16.5h-873q-23 0 -40 -16.5t-17 -39.5q0 -24 17 -40.5t40 -16.5h873q24 0 40.5 16.5 t16.5 40.5zM1693 297q0 23 -16.5 39.5t-40.5 16.5h-873q-23 0 -40 -16.5t-17 -39.5q0 -24 17 -40.5t40 -16.5h873q24 0 40.5 16.5t16.5 40.5z" />
<glyph unicode="i" d="M931 -65h537v-194h-537v194zM1693 515q0 -24 -16.5 -40.5t-40.5 -16.5h-873q-23 0 -40 16.5t-17 40.5q0 23 17 39.5t40 16.5h873q24 0 40.5 -16.5t16.5 -39.5zM1693 79q0 -24 -16.5 -40.5t-40.5 -16.5h-873q-23 0 -40 16.5t-17 40.5q0 23 17 39.5t40 16.5h873 q24 0 40.5 -16.5t16.5 -39.5zM1693 297q0 -24 -16.5 -40.5t-40.5 -16.5h-873q-23 0 -40 16.5t-17 40.5q0 23 17 39.5t40 16.5h873q24 0 40.5 -16.5t16.5 -39.5zM932 658v194h536v-194h-536z" />
<glyph unicode="j" d="M1679 -118q44 -44 44 -108t-45 -109t-109 -45t-108 46l-618 577l-53 -77l-53 121q-28 -5 -70 -1l-29 -104l-109 30l27 102q-33 16 -60 37l-78 -75l-79 78l76 76q-20 26 -37 62l-103 -27l-28 110l101 25q-4 39 0 74l-101 28l28 110l102 -27q11 31 36 63l-73 73l80 80 l73 -73q19 16 63 38l-25 98l110 29l26 -98q36 6 74 0l26 97l110 -29l-26 -98q21 -9 65 -37l72 72l80 -80l-75 -72q27 -37 36 -64l102 25l28 -110l-101 -26q3 -40 -1 -73l115 -44l-78 -52q491 -529 585 -622zM1499 -296q29 -29 70 -29t70 29t29.5 70.5t-28.5 70.5t-70.5 28.5 t-70.5 -29.5t-29 -70t29 -70zM638 707q29 29 29 70.5t-29 70.5q-30 30 -71 30t-70 -29q-29 -28 -28.5 -68.5t29.5 -70.5q29 -29 70 -30t70 27zM778 707q29 -29 70.5 -28t69.5 31q30 29 30 70t-28 69q-29 29 -70 29t-69 -30q-29 -29 -30 -70.5t27 -70.5zM497 426 q27 -28 69 -28t72 30q29 29 29 70t-29 69t-70 28t-70 -28q-29 -29 -29.5 -71t28.5 -70z" />
<glyph unicode="k" d="M495 0h-275l200 471h272l-77 -183l229 183h188l-225 -186l129 -169l163 411h-387l31 85h1050l-25 -85h-391l-110 -319l263 263h241l-39 -180l203 180h252l-105 -471h-249l26 169l-191 -169h-232l30 171l-183 -171h-592l-127 169z" />
<glyph unicode="l" d="M1916 300h-341l74 -75l-67 -67l-193 192l193 192l67 -68l-79 -79h346v-95zM1038 972v-224q85 -39 137.5 -120.5t52.5 -180.5v-217h-93v217q0 100 -70.5 171t-170.5 71t-171 -71t-71 -171v-217h-93v217q0 98 53 180t138 121v224h288zM894 568q58 0 98.5 -41t40.5 -99v-566 h-279v566q0 58 41 99t99 41z" />
<glyph unicode="m" d="M900 300h-341v95h346l-79 79l67 68l193 -192l-193 -192l-67 67zM1437 748v224h288v-224q85 -39 138 -121t53 -180v-217h-93v217q0 100 -71 171t-171 71t-170.5 -71t-70.5 -171v-217h-93v217q0 99 52.5 180.5t137.5 120.5zM1581 568q58 0 99 -41t41 -99v-566h-279v566 q0 58 40.5 99t98.5 41z" />
<glyph unicode="n" d="M1056 748v224h288v-224q85 -39 138 -121t53 -180v-217h-93v217q0 100 -71 171t-171 71t-170.5 -71t-70.5 -171v-217h-93v217q0 99 52.5 180.5t137.5 120.5zM1200 568q58 0 99 -41t41 -99v-566h-279v566q0 58 40.5 99t98.5 41z" />
<glyph unicode="o" d="M863 799v104h673v-104h-673zM968 -16v727h462v-727h-462zM1536 -103v-104h-673v104h673z" />
<glyph unicode="p" d="M759 722v-753h-104v753h104zM1744 576v-462h-897v462h897z" />
<glyph unicode="q" d="M614 350q0 119 46.5 227.5t125 187t187 125t227.5 46.5t227.5 -46.5t187 -125t125 -187t46.5 -227.5t-46.5 -227.5t-125 -187t-187 -125t-227.5 -46.5t-227.5 46.5t-187 125t-125 187t-46.5 227.5zM714 350q0 -99 38.5 -189t103.5 -155t155 -103.5t189 -38.5t189 38.5 t155 103.5t103.5 155t38.5 189t-38.5 189t-103.5 155t-155 103.5t-189 38.5t-189 -38.5t-155 -103.5t-103.5 -155t-38.5 -189z" />
<glyph unicode="r" d="M1822 -108q6 -80 6 -124h-226q0 245 -121.5 453.5t-330 330t-453.5 121.5v226q71 0 138 -9l-10 -82q64 -9 125 -24l21 81q75 -18 131 -41l-30 -78q65 -24 116 -52l39 73q74 -41 117 -72l-47 -68q40 -28 99 -79l55 62q59 -53 97 -98l-62 -55q49 -56 79 -101l68 47 q38 -56 70 -118l-74 -38q29 -57 51 -117l78 28q26 -69 40 -131l-81 -19q16 -71 22 -125z" />
<glyph unicode="s" d="M1080 679q42 -34 82 -114t78 -158t74 -108q2 -1 12 7.5t24.5 20.5t24.5 17l79 -79l-73 -88l279 -232l57 22l95 -79l-112 -136l-96 79l11 60l-281 230l-72 -88l-92 62q3 11 12 27.5t15 28t5 12.5q-40 33 -123.5 56t-168 46t-125.5 57q-114 95 -170.5 166t-64.5 151 q-8 74 47 139q55 66 127 72q81 8 162 -34.5t194 -136.5z" />
<glyph unicode="t" d="M419 78v552h434v-552h-434zM948 542h607q-74 -117 -39 -254l-568 -77v331zM1824 591q91 0 155.5 -64.5t64.5 -156.5t-64 -156t-156 -64t-156.5 64.5t-64.5 155.5q0 92 64.5 156.5t156.5 64.5z" />
<glyph unicode="u" d="M1717 461h414v-103h-414q-49 0 -83 -11.5t-48.5 -24t-39.5 -41.5q-22 -25 -35 -38t-44 -34.5t-63 -33t-85.5 -20.5t-118.5 -9t-118 9t-85.5 20.5t-63 33t-43.5 34.5t-35 38q-25 28 -40 41t-48.5 24.5t-82.5 11.5h-414v103h414q64 0 113 -14.5t73 -31.5t52 -45 q43 -41 64 -53q68 -41 214 -41q65 0 111 6t79 22.5t44 25t36 33.5q5 5 8 7q28 28 52.5 45t73.5 31.5t113 14.5z" />
<glyph unicode="v" d="M978 799l44 -80q13 -24 47 -39t75 -25t84 -22.5t82.5 -40.5t61.5 -71l298 -587l-199 -100l-277 546q-14 27 -48.5 44t-76.5 26.5t-86 20.5t-85 36t-64 63l-80 134q-26 43 -35.5 72t-7 46.5t22 26.5t44.5 12t68 3q58 0 84 -12.5t48 -52.5z" />
<glyph unicode="w" d="M1546 454l192 -604h-1075l191 604h214q-46 32 -73 82.5t-27 108.5q0 96 68 164t164 68t164.5 -68t68.5 -164q0 -58 -27 -108.5t-74 -82.5h214zM1200 734q-37 0 -63 -26t-26 -63t26 -63t63 -26t63 26t26 63t-26 63t-63 26z" />
<glyph unicode="x" d="M2332 328q0 -54 -42.5 -82t-104.5 -28q-43 0 -144.5 41t-186.5 57q-260 -215 -318 -255q-86 -61 -208 -61h-485q-62 0 -96.5 5t-74 26t-75.5 60.5t-90 112.5q-424 51 -424 358q0 81 52 123t132 42q110 0 211.5 -14.5t172 -35t149.5 -43.5t142.5 -40t151.5 -24t177 4 q208 24 400 9.5t339 -51.5t234.5 -92t87.5 -112zM1497 117q84 58 269 211q-74 9 -138 7q-90 -3 -196 -32.5t-187.5 -63t-179 -62.5t-172.5 -31q-127 -4 -293 35q28 -35 52 -57t41.5 -34.5t45 -17.5t45 -6t59.5 -1h484q93 0 170 52z" />
<glyph unicode="y" d="M877 -158h-234l97 850h137v-850zM1723 773h-780v75h780v-75zM1723 502h-780v190h780v-190zM1723 345h-780v75h780v-75z" />
<glyph unicode="z" d="M1722 762l83 -307q-84 12 -160.5 16t-171.5 -3.5t-183.5 -30t-191 -68t-199.5 -111.5t-203.5 -166.5t-207.5 -227.5h-154q164 217 322.5 362.5t328.5 233.5l247 302h490z" />
<glyph unicode="{" d="M481 277h-323l235 535h320l-90 -208l268 208h219l-262 -211l152 -193l192 467h-456l37 97h1234l-29 -97h-460l-129 -362l309 299h283l-45 -204l239 204h295l-122 -536h-294l31 193l-225 -192l-273 -1l36 195l-215 -194h-696l-150 192zM-66 -250l191 435h82l-192 -435h-81 zM313 105l10 66h200l-10 -66h-60l-49 -355h-81l50 355h-60zM604 -66l-16 -118h121l-9 -66h-202l59 421h190l-10 -66h-109l-14 -105h69l-10 -66h-69zM889 83l-89 -333h-81l128 421h110l10 -421h-81zM1218 -250h-74l-15 324l-45 -324h-81l59 421h128l8 -298l92 298h128 l-59 -421h-80l45 324z" />
<glyph unicode="|" d="M481 277h-323l235 535h320l-90 -208l268 208h219l-262 -211l152 -193l192 467h-456l37 97h1234l-29 -97h-460l-129 -362l309 299h283l-45 -204l239 204h295l-122 -536h-294l31 193l-225 -192l-273 -1l36 195l-215 -194h-696l-150 192zM-66 -250l191 435h82l-192 -435h-81 zM348 171h81l-50 -355h68l-9 -66h-149zM620 171l-59 -421h-81l59 421h81zM829 171h81l-59 -421h-79l-41 207l-29 -207h-81l59 421h80l39 -216zM1017 -66l-16 -118h121l-9 -66h-202l59 421h190l-10 -66h-109l-14 -105h68l-9 -66h-69z" />
<glyph unicode="}" d="M1722 762l83 -307q-84 12 -160.5 16t-171.5 -3.5t-183.5 -30t-191 -68t-199.5 -111.5t-203.5 -166.5t-207.5 -227.5h-154q164 217 322.5 362.5t328.5 233.5l247 302h490zM1610 -68h191v-65h-267q-12 65 -2 114t31.5 79.5t49.5 57t53 46t42.5 47t17.5 59.5q0 30 -15.5 47 t-44.5 17q-78 0 -58 -105h-77q-12 88 26 129t109 41q62 0 99.5 -32.5t37.5 -96.5q0 -39 -16 -73t-39.5 -56t-50 -46t-48 -45t-33.5 -51.5t-6 -66.5z" />
<glyph unicode="~" d="M1722 762l83 -307q-84 12 -160.5 16t-171.5 -3.5t-183.5 -30t-191 -68t-199.5 -111.5t-203.5 -166.5t-207.5 -227.5h-154q164 217 322.5 362.5t328.5 233.5l247 302h490zM1532 389h270v-50l-109 -136q5 1 14 1q46 0 73.5 -36.5t27.5 -94.5v-73q0 -73 -37.5 -108.5 t-100.5 -35.5q-64 0 -102 35.5t-38 108.5v59h77v-58q0 -34 16.5 -56.5t46.5 -22.5q62 0 62 79v58q0 95 -65 95q-24 0 -43 -11l-28 34l108 146h-172v66z" />
<glyph unicode="&#xa2;" d="M1401 802h-403v71h403v-71zM1004 363q-49 0 -68 42h-229v70h229q20 40 68 40q46 0 68 -40h257q20 40 68 40q46 0 68 -40h228v-70h-228q-21 -42 -68 -42q-49 0 -68 42h-257q-21 -42 -68 -42zM1200 560q-48 0 -68 43h-229v70h229q19 41 68 41t68 -41h229v-70h-229 q-20 -43 -68 -43zM807 164q-46 0 -68 41h-228v71h228q25 41 68 41q22 0 40.5 -11.5t27.5 -29.5h257q9 18 27.5 29.5t40.5 11.5q21 0 40 -11.5t28 -29.5h257q21 41 68 41q44 0 67 -41h229v-71h-229q-20 -41 -67 -41q-49 0 -68 41h-257q-19 -41 -68 -41t-68 41h-257 q-19 -41 -68 -41zM2085 70v-70h-227q-22 -42 -69 -42q-46 0 -68 42h-256q-22 -42 -68 -42q-48 0 -68 42h-257q-22 -42 -68 -42q-48 0 -68 42h-258q-22 -41 -67 -41q-46 0 -68 41h-228v70h227q21 44 69 44t69 -44h256q20 44 68 44q47 0 68 -44h257q20 44 68 44q47 0 68 -44 h256q21 44 68 44q48 0 69 -44h227zM1982 890h270v-50l-109 -136q5 1 14 1q46 0 73.5 -36.5t27.5 -94.5v-73q0 -73 -37.5 -108.5t-100.5 -35.5q-64 0 -102 35.5t-38 108.5v59h77v-58q0 -34 16.5 -56.5t46.5 -22.5q62 0 62 79v58q0 95 -65 95q-24 0 -43 -11l-28 34l108 146 h-172v66z" />
<glyph unicode="&#xae;" d="M1667 518l-114 -30l-12 47l-796 -670l-745 112l524 493l-56 214l113 30l27 -103l856 216l-10 41l113 30zM558 341l-301 -284l391 -58zM638 497l117 -459q124 105 374 314.5t374 314.5l-9 46zM1256 -64q4 -1 11 -2.5t26 -2t35.5 3.5t34.5 18.5t29 38.5q-2 6 -4.5 15.5 t-6 37.5t-3 54t9.5 58.5t27.5 56.5t55.5 42t88 22q33 3 77 -12.5t84.5 -50t48 -91t-34.5 -135.5q-22 -38 -71 -72q-150 -103 -366 -2q-20 10 -41 21zM1621 67q20 -12 43.5 -6.5t36.5 26.5q12 20 6 44t-27 37q-20 12 -43 6t-36 -27q-13 -20 -7 -43.5t27 -36.5zM2085 731 l-316 -420q-11 -14 -29 -16.5t-30 7.5q-13 9 -15.5 25t8.5 32l316 421q11 14 27.5 16t30.5 -8q13 -10 15.5 -27t-7.5 -30zM2118 10h54v-58h-54v-72h-67v72h-193l161 390h99v-332zM2051 10v241l-95 -241h95z" />
<glyph unicode="&#xb0;" d="M1401 802h-403v71h403v-71zM1004 363q-49 0 -68 42h-229v70h229q20 40 68 40q46 0 68 -40h257q20 40 68 40q46 0 68 -40h228v-70h-228q-21 -42 -68 -42q-49 0 -68 42h-257q-21 -42 -68 -42zM1200 560q-48 0 -68 43h-229v70h229q19 41 68 41t68 -41h229v-70h-229 q-20 -43 -68 -43zM807 164q-46 0 -68 41h-228v71h228q25 41 68 41q22 0 40.5 -11.5t27.5 -29.5h257q9 18 27.5 29.5t40.5 11.5q21 0 40 -11.5t28 -29.5h257q21 41 68 41q44 0 67 -41h229v-71h-229q-20 -41 -67 -41q-49 0 -68 41h-257q-19 -41 -68 -41t-68 41h-257 q-19 -41 -68 -41zM2085 70v-70h-227q-22 -42 -69 -42q-46 0 -68 42h-256q-22 -42 -68 -42q-48 0 -68 42h-257q-22 -42 -68 -42q-48 0 -68 42h-258q-22 -41 -67 -41q-46 0 -68 41h-228v70h227q21 44 69 44t69 -44h256q20 44 68 44q47 0 68 -44h257q20 44 68 44q47 0 68 -44 h256q21 44 68 44q48 0 69 -44h227zM2060 433h191v-65h-267q-12 65 -2 114t31.5 79.5t49.5 57t53 46t42.5 47t17.5 59.5q0 30 -15.5 47t-44.5 17q-78 0 -58 -105h-77q-12 88 26 129t109 41q62 0 99.5 -32.5t37.5 -96.5q0 -39 -16 -73t-39.5 -56t-50 -46t-48 -45t-33.5 -51.5 t-6 -66.5z" />
<glyph unicode="&#xb5;" d="M2133 466h-375q-127 0 -172 -81q-55 -98 53 -98h156l112 -169h-338q-102 0 -170 20t-97 56t-27.5 83t33.5 104l14 25q72 129 171.5 179.5t270.5 50.5h470zM545 636h466q64 0 113 -18t75 -46t38.5 -61.5t10 -65.5t-17.5 -57l-24 -41q-129 -221 -341 -221h-62l-133 161h109 q65 0 102 20t61 62q24 41 6.5 69t-69.5 28h-154q-21 0 -32 -17l-251 -411h-276l347 580q11 18 32 18z" />
<glyph unicode="&#xc0;" d="M1552 302l38 53h150v-435h-419l76 122h-117l-124 -122h-449l431 260q-150 5 -124 187l34 237q14 102 60.5 144t121.5 42q76 0 111 -42.5t20 -143.5l-34 -237q-8 -51 -22 -86l121 74h151l-45 -53h20zM1158 272q24 0 37 22t20 75l33 233q7 53 0 74t-31 21t-37.5 -21 t-20.5 -74l-32 -233q-7 -54 0 -75.5t31 -21.5zM1440 112l72 121l-43 1l-119 -122h90zM768 180q-75 0 -109 42t-16 126h111q-7 -43 -1 -59.5t28 -16.5q20 0 35.5 15.5t18.5 37.5l14 94q-31 -28 -69 -28q-62 0 -96 38.5t-25 113.5l12 93q10 76 59.5 115t122.5 39t111 -39 t27 -115l-43 -311q-10 -71 -59.5 -108t-120.5 -37zM866 545l13 90q8 62 -39 62q-48 0 -56 -62l-13 -90q-8 -62 38 -62q23 0 38 17t19 45zM1719 587q50 0 41 -57l-19 -133h-35l20 133q4 29 -13 29q-20 0 -24 -29l-19 -133h-35l20 133q4 29 -15 29q-18 0 -22 -29l-19 -133h-35 l20 133q9 57 58 57q30 0 35 -21q12 21 42 21zM1477 473l-14 -15l-9 -61h-34l34 230h34l-17 -117l48 69h41l-56 -75l37 -107h-39zM1682 688v65q0 28 29 28t29 -28v-65q0 -29 -29 -29t-29 29zM1436 688v91h21v-91q0 -12 8 -12q9 0 9 12v91h21v-91q0 -29 -30 -29q-29 0 -29 29z M1534 661h-21v118h32q27 0 27 -29v-17q0 -28 -32 -28h-6v-44zM1652 661h-21v101h-15v17h51v-17h-15v-101zM1703 752v-64q0 -12 8 -12t8 12v64q0 12 -8 12t-8 -12zM1534 762v-40h6q11 0 11 14v13q0 13 -12 13h-5z" />
<glyph unicode="&#xc1;" d="M1552 302l38 53h150v-435h-419l76 122h-117l-124 -122h-449l431 260q-150 5 -124 187l34 237q14 102 60.5 144t121.5 42t110 -42.5t21 -143.5l-34 -237q-8 -51 -22 -86l121 74h151l-45 -53h20zM1217 697q-24 0 -37.5 -21t-20.5 -74l-32 -233q-7 -54 0 -75.5t31 -21.5 t37 22t20 75l33 233q7 53 0 74t-31 21zM1440 112l72 121l-43 1l-119 -122h90zM436 617l14 105l188 67l-84 -597h-108l63 453zM773 180q-156 0 -130 187l33 237q14 101 61 143.5t122 42.5t109.5 -42t20.5 -144l-33 -237q-26 -187 -183 -187zM786 272q24 0 37.5 21.5 t20.5 75.5l32 233q7 53 0 74t-31 21t-37 -21t-20 -74l-33 -233q-7 -54 0 -75.5t31 -21.5zM1719 587q50 0 41 -57l-19 -133h-35l20 133q4 29 -13 29q-20 0 -24 -29l-19 -133h-35l20 133q4 29 -15 29q-18 0 -22 -29l-19 -133h-35l20 133q9 57 58 57q30 0 35 -21q12 21 42 21z M1477 473l-14 -15l-9 -61h-34l34 230h34l-17 -117l48 69h41l-56 -75l37 -107h-39zM1682 688v65q0 28 29 28t29 -28v-65q0 -29 -29 -29t-29 29zM1436 688v91h21v-91q0 -12 8 -12q9 0 9 12v91h21v-91q0 -29 -30 -29q-29 0 -29 29zM1534 661h-21v118h32q27 0 27 -29v-17 q0 -28 -32 -28h-6v-44zM1652 661h-21v101h-15v17h51v-17h-15v-101zM1703 752v-64q0 -12 8 -12t8 12v64q0 12 -8 12t-8 -12zM1534 762v-40h6q11 0 11 14v13q0 13 -12 13h-5z" />
<glyph unicode="&#xc2;" d="M1552 302l38 53h150v-435h-419l76 122h-117l-124 -122h-449l431 260q-150 5 -124 187l34 237q14 102 60.5 144t121.5 42t110 -42.5t21 -143.5l-34 -237q-8 -51 -22 -86l121 74h151l-45 -53h20zM1217 697q-24 0 -37.5 -21t-20.5 -74l-32 -233q-7 -54 0 -75.5t31 -21.5 t37 22t20 75l33 233q7 53 0 74t-31 21zM1440 112l72 121l-43 1l-119 -122h90zM480 722l188 67l-84 -597h-108l63 453l-73 -28zM957 284l-12 -92h-302q-2 62 10 112.5t33.5 84t47.5 61.5t53.5 50t51 42.5t41 46.5t21.5 56q2 22 -7.5 37t-29.5 15q-61 0 -56 -99h-111 q0 99 50.5 145.5t130.5 46.5q69 0 107 -37t28 -108q-7 -51 -35.5 -94.5t-63.5 -74t-69 -59t-56 -62.5t-21 -71h189zM1719 587q50 0 41 -57l-19 -133h-35l20 133q4 29 -13 29q-20 0 -24 -29l-19 -133h-35l20 133q4 29 -15 29q-18 0 -22 -29l-19 -133h-35l20 133q9 57 58 57 q30 0 35 -21q12 21 42 21zM1477 473l-14 -15l-9 -61h-34l34 230h34l-17 -117l48 69h41l-56 -75l37 -107h-39zM1682 688v65q0 28 29 28t29 -28v-65q0 -29 -29 -29t-29 29zM1436 688v91h21v-91q0 -12 8 -12q9 0 9 12v91h21v-91q0 -29 -30 -29q-29 0 -29 29zM1534 661h-21v118 h32q27 0 27 -29v-17q0 -28 -32 -28h-6v-44zM1652 661h-21v101h-15v17h51v-17h-15v-101zM1703 752v-64q0 -12 8 -12t8 12v64q0 12 -8 12t-8 -12zM1534 762v-40h6q11 0 11 14v13q0 13 -12 13h-5z" />
<glyph unicode="&#xc3;" d="M1552 302l38 53h150v-435h-419l76 122h-117l-124 -122h-449l431 260q-150 5 -124 187l34 237q14 101 60.5 143t121.5 42q76 0 110.5 -42t20.5 -143l-34 -237q-8 -51 -22 -86l121 74h151l-45 -53h20zM1158 272q24 0 37 22t20 75l33 233q7 53 0 74t-31 21t-37.5 -21 t-20.5 -74l-32 -233q-7 -54 0 -75.5t31 -21.5zM1440 112l72 121l-43 1l-119 -122h90zM468 722l188 67l-84 -597h-108l63 453l-73 -28zM972 443l-16 -110q-11 -76 -58 -114.5t-119 -38.5t-109 38.5t-27 114.5l11 75h112l-10 -73q-10 -63 35 -63q46 0 54 63l11 83 q13 90 -35 90q-22 0 -45 -11l-32 47l110 139h-161l13 95h305l-9 -64l-126 -140q39 5 63.5 -15t31 -50.5t1.5 -65.5zM1719 587q50 0 41 -57l-19 -133h-35l20 133q4 29 -13 29q-20 0 -24 -29l-19 -133h-35l20 133q4 29 -15 29q-18 0 -22 -29l-19 -133h-35l20 133q9 57 58 57 q30 0 35 -21q12 21 42 21zM1477 473l-14 -15l-9 -61h-34l34 230h34l-17 -117l48 69h41l-56 -75l37 -107h-39zM1682 688v65q0 28 29 28t29 -28v-65q0 -29 -29 -29t-29 29zM1436 688v91h21v-91q0 -12 8 -12q9 0 9 12v91h21v-91q0 -29 -30 -29q-29 0 -29 29zM1534 661h-21v118 h32q27 0 27 -29v-17q0 -28 -32 -28h-6v-44zM1652 661h-21v101h-15v17h51v-17h-15v-101zM1703 752v-64q0 -12 8 -12t8 12v64q0 12 -8 12t-8 -12zM1534 762v-40h6q11 0 11 14v13q0 13 -12 13h-5z" />
<glyph unicode="&#xc4;" d="M1552 303l38 53h150v-436h-419l76 123h-117l-124 -123h-449l432 262q-63 5 -94 43t-22 109l11 75h112l-10 -73q-10 -63 35 -63q46 0 54 63l10 83q7 60 -29.5 74t-95.5 -21l-60 36l69 271h262l-13 -92h-160l-29 -117q90 26 136.5 -10.5t32.5 -139.5l-12 -86q-3 -20 -9 -38 l99 60h151l-45 -53h20zM1440 113l72 121l-43 1l-119 -122h90zM484 723l189 67l-84 -597h-109l64 453l-74 -28zM989 444l-16 -110q-11 -76 -58.5 -114.5t-119.5 -38.5t-108.5 38.5t-26.5 114.5l11 75h112l-10 -73q-10 -63 35 -63q46 0 54 63l10 83q6 48 -1.5 69t-33.5 21 q-20 0 -45 -11l-32 47l111 139h-162l14 95h304l-9 -64l-125 -140q57 8 80.5 -33.5t15.5 -97.5zM1719 587q50 0 41 -57l-19 -133h-35l20 133q4 29 -13 29q-20 0 -24 -29l-19 -133h-35l20 133q4 29 -15 29q-18 0 -22 -29l-19 -133h-35l20 133q9 57 58 57q30 0 35 -21 q12 21 42 21zM1477 473l-14 -15l-9 -61h-34l34 230h34l-17 -117l48 69h41l-56 -75l37 -107h-39zM1682 688v65q0 28 29 28t29 -28v-65q0 -29 -29 -29t-29 29zM1436 688v91h21v-91q0 -12 8 -12q9 0 9 12v91h21v-91q0 -29 -30 -29q-29 0 -29 29zM1534 661h-21v118h32 q27 0 27 -29v-17q0 -28 -32 -28h-6v-44zM1652 661h-21v101h-15v17h51v-17h-15v-101zM1703 752v-64q0 -12 8 -12t8 12v64q0 12 -8 12t-8 -12zM1534 762v-40h6q11 0 11 14v13q0 13 -12 13h-5z" />
<glyph unicode="&#xc5;" d="M1552 303l38 53h150v-436h-419l76 123h-117l-124 -123h-449l432 262q-63 5 -94 43t-22 109l11 75h112l-10 -73q-10 -63 35 -63q46 0 54 63l10 83q7 60 -29.5 74t-95.5 -21l-60 36l69 271h262l-13 -92h-160l-29 -117q90 26 136.5 -10.5t32.5 -139.5l-12 -86q-3 -20 -9 -38 l99 60h151l-45 -53h20zM1440 113l72 121l-43 1l-119 -122h90zM483 723l188 67l-84 -597h-109l64 453l-74 -28zM993 420l-12 -86q-10 -76 -58 -114.5t-120 -38.5t-108.5 38.5t-26.5 114.5l11 75h112l-10 -73q-10 -63 35 -63t53 63l11 83q8 60 -29 74.5t-96 -21.5l-60 36 l69 271h262l-13 -92h-160l-29 -117q90 26 136.5 -10.5t32.5 -139.5zM1719 587q50 0 41 -57l-19 -133h-35l20 133q4 29 -13 29q-20 0 -24 -29l-19 -133h-35l20 133q4 29 -15 29q-18 0 -22 -29l-19 -133h-35l20 133q9 57 58 57q30 0 35 -21q12 21 42 21zM1477 473l-14 -15 l-9 -61h-34l34 230h34l-17 -117l48 69h41l-56 -75l37 -107h-39zM1682 688v65q0 28 29 28t29 -28v-65q0 -29 -29 -29t-29 29zM1436 688v91h21v-91q0 -12 8 -12q9 0 9 12v91h21v-91q0 -29 -30 -29q-29 0 -29 29zM1534 661h-21v118h32q27 0 27 -29v-17q0 -28 -32 -28h-6v-44z M1652 661h-21v101h-15v17h51v-17h-15v-101zM1703 752v-64q0 -12 8 -12t8 12v64q0 12 -8 12t-8 -12zM1534 762v-40h6q11 0 11 14v13q0 13 -12 13h-5z" />
<glyph unicode="&#xc7;" d="M1701 -21h40l-1 -328h-151v328h40v224h-40v76l-83 47l-85 -49v-74h-39v-224h39v-328h-151l-1 328h40l-1 224h-39v142l89 1l104 61v159l-503 250l1 -114l110 -61h81v-144h-39v-518h39v-328h-151v328h39v518h-39v77l-84 47l-85 -50v-74h-38v-518h38l1 -328h-152v328h39v518 h-39l-1 143h89l104 61v158l-193 96v49l1062 -527v-49l-192 95v-116l110 -60l82 -1v-143h-40v-224z" />
<glyph unicode="&#xdc;" d="M1252 692h497q200 0 269.5 -87t-20.5 -243l-24 -40q-77 -128 -182.5 -204.5t-257.5 -96.5l-240 175h164q124 0 203 129l31 51q35 53 21 90t-79 37h-181l-183 -289l-219 160zM755 196h188l128 -189h-431q-133 0 -209.5 34t-91.5 104t51 177l222 362l168 -248l-72 -111 q-39 -57 -28.5 -93t75.5 -36zM839 529l-222 163h328z" />
<glyph unicode="&#xdf;" d="M1061 409h545v-656h-811v656h116v206q0 117 85 203t204 86q118 0 204 -85t86 -204v-58h-150v58q0 59 -40.5 99.5t-99.5 40.5q-58 0 -98.5 -40.5t-40.5 -99.5v-206z" />
<glyph unicode="&#xe0;" d="M1487 639v-80h219v-253h-319v253h36v80q0 43 27 76.5t69 43.5q-13 102 -90.5 170.5t-181.5 68.5q-113 0 -193.5 -80.5t-80.5 -193.5q0 -122 89 -203l55 54l60 -60l-42 -42l374 -374l-8 -185l176 -177l-145 -146l-176 177l-187 -9l-374 375l-42 -42l-60 59l139 140l-94 94 l146 146l94 -95l49 49q-49 44 -76.5 107t-27.5 132q0 132 94 228t230 96q124 0 215 -80t107 -208q43 -8 72 -42t29 -79v-42h-64v42q0 25 -17.5 42t-41.5 17q-25 0 -42.5 -17t-17.5 -42z" />
<glyph unicode="&#xe1;" d="M2046 350q0 -43 -10 -86t-37 -78t-65 -35h-303q-37 85 -37 199q0 115 37 199h303q38 0 65 -35t37 -78t10 -86zM1997 350q0 59 -20 100.5t-49 41.5t-49 -41.5t-20 -100.5t20.5 -100.5t48.5 -41.5t48.5 41.5t20.5 100.5zM1412 532q-40 0 -47 -50l-33 -236q-8 -51 34 -51 q40 0 47 51l33 236q7 50 -34 50zM1533 114q-67 -60 -186 -60q-108 0 -161 49.5t-39 148.5l31 223q14 100 80 149t174 49q76 0 125 -24q-49 -138 -49 -309q0 -120 25 -226zM874 211h242l-19 -141h-283q-38 119 -38 270v1q27 19 82 43.5t84 48t34 62.5q5 37 -32 37 q-22 0 -35.5 -21.5t-7.5 -64.5h-117q19 115 71 213q46 14 111 14q113 0 160.5 -43t33.5 -145q-8 -61 -41 -105t-73.5 -66t-79.5 -37.5t-65.5 -31t-26.5 -34.5zM465 549h264q-40 -85 -40 -205q0 -110 35 -193h-259q-39 0 -65.5 35t-36.5 78t-10 86t10 86t37 78t65 35z" />
<glyph unicode="&#xe2;" d="M1487 639v-80h219v-253h-319v253h36v80q0 43 27 76.5t69 43.5q-13 102 -90.5 170.5t-181.5 68.5q-114 0 -194.5 -80.5t-80.5 -193.5q0 -105 106 -217l20 -21l35 36l124 -124l-34 -34l133 -133l34 34l283 -284l-131 -131l-283 284l34 34l-133 133l-34 -34l-66 66l-113 -32 l-31 -116l64 -64l-34 -33l134 -134l33 34l284 -283l-131 -131l-284 283l34 34l-133 133l-34 -34l-124 123l77 77l37 143l-140 140l75 75l140 -139l148 43l-19 20q-121 125 -121 252q0 132 94.5 228t230.5 96q123 0 214 -80t108 -208q43 -8 71.5 -42t28.5 -79v-42h-63v42 q0 25 -17.5 42t-42.5 17t-42 -17t-17 -42z" />
<glyph unicode="&#xe3;" d="M1485 447l-86 -193q-20 -44 -1 -60.5t92 -16.5h117l43 97h-159l68 154h372l-188 -422h-323q-69 0 -121 14t-81 37.5t-42 55t-10.5 67t19.5 72.5l6 14h-219q-65 0 -100.5 -16.5t-53.5 -56.5l-48 -103q-20 -44 -0.5 -61t92.5 -17h246l-76 -171h-250q-83 0 -140.5 20.5 t-80.5 54.5t-26 78.5t22 92.5l48 104q47 103 93 152.5t119.5 71.5t204.5 22h245l4 8q44 98 96.5 149t133.5 73.5t217 22.5h329l-76 -170h-337q-64 0 -97.5 -16t-51.5 -57z" />
<glyph unicode="&#xe4;" d="M1485 447l-86 -193q-20 -44 -1 -60.5t92 -16.5h117l43 97h-159l68 154h372l-188 -422h-323q-69 0 -121 14t-81 37.5t-42 55t-10.5 67t19.5 72.5l7 17h-34q-26 0 -63 -32l-170 -146l30 -124q10 -39 50 -39h102l-72 -164h-104q-55 0 -84.5 20.5t-39.5 66.5l-24 107 l-131 -123q-40 -36 -78 -53.5t-92 -17.5h-139l73 164h77q20 0 33.5 7t33.5 23l194 161l-29 112q-6 20 -14 29t-25 9h-113l73 164h106q55 0 84 -20.5t39 -66.5l17 -86l111 102q40 36 78 53.5t92 17.5h92l6 12q44 98 96.5 149t133.5 73.5t217 22.5h329l-76 -170h-337 q-64 0 -97.5 -16t-51.5 -57z" />
<glyph unicode="&#xe5;" d="M1485 447l-86 -193q-20 -44 -1 -60.5t92 -16.5h117l43 97h-159l68 154h372l-188 -422h-323q-69 0 -121 14t-81 37.5t-42 55t-10.5 67t19.5 72.5l10 22h-156l-213 -477l-202 1l212 476h-219l70 154h576l8 17q44 98 96.5 149t133.5 73.5t217 22.5h329l-76 -170h-337 q-64 0 -97.5 -16t-51.5 -57z" />
<glyph unicode="&#xe7;" d="M941 86q-32 16 -26 55l111 738q62 37 175 37t175 -37l111 -738q6 -39 -26 -55q-98 -48 -260 -48t-260 48zM1872 -54q0 -131 -37.5 -223t-90.5 -92h-1089q-53 0 -90.5 92t-37.5 223q0 130 37.5 222t90.5 92h145l-15 -100q-7 -46 5 -83.5t37 -63.5t62 -45.5t76 -31 t84 -18.5t80.5 -9.5t70.5 -2.5q45 0 89.5 4t97.5 13.5t95.5 28.5t77 45.5t50.5 68.5t8 94l-15 100h141q53 0 90.5 -92t37.5 -222z" />
<glyph unicode="&#xe8;" d="M508 589h1384q35 0 62.5 -24t42.5 -61.5t22.5 -77t7.5 -76.5q0 -51 -12 -103t-44.5 -94t-78.5 -42h-1384q-35 0 -62.5 24t-42.5 62t-22.5 77t-7.5 76t7.5 76.5t22.5 77t42.5 61.5t62.5 24zM1968 350q0 71 -24 120.5t-59 49.5q-34 0 -58.5 -49.5t-24.5 -120.5 q0 -70 24.5 -120t58.5 -50t58.5 49.5t24.5 120.5z" />
<glyph unicode="&#xe9;" d="M614 350q0 119 46.5 227.5t125 187t187 125t227.5 46.5t227.5 -46.5t187 -125t125 -187t46.5 -227.5t-46.5 -227.5t-125 -187t-187 -125t-227.5 -46.5t-227.5 46.5t-187 125t-125 187t-46.5 227.5zM1154 834q-151 -15 -268 -113l268 -268v381zM1514 721q-117 98 -268 113 v-381zM1684 388q-12 149 -106 267l-267 -267h373zM822 655q-95 -119 -107 -267h374zM1571 36q96 113 112 260h-372zM717 296q16 -147 112 -260l260 260h-372zM1246 -134q142 13 259 106l-259 259v-365zM895 -28q115 -93 259 -106v365z" />
<glyph unicode="&#xea;" d="M1727 868v-531q0 -166 -82.5 -307.5t-224 -224t-308.5 -82.5v105q138 0 255.5 68.5t186 185.5t68.5 255q0 85 -30.5 186t-63 168t-91.5 177h290zM1112 -101q-181 0 -310 128.5t-129 309.5q0 119 54 249.5t141 281.5h209v-223q-116 -13 -195.5 -101t-79.5 -207 q0 -128 91 -218.5t219 -90.5t219 90.5t91 218.5q0 119 -79.5 207t-195.5 101v223h209q87 -151 141 -281.5t54 -249.5q0 -181 -129 -309.5t-310 -128.5z" />
<glyph unicode="&#xeb;" d="M1772 589h120q35 0 62.5 -24t42.5 -61.5t22.5 -77t7.5 -76.5q0 -51 -12 -103t-44.5 -94t-78.5 -42h-1384q-35 0 -62.5 24t-42.5 62t-22.5 77t-7.5 76t7.5 76.5t22.5 77t42.5 61.5t62.5 24h121l132 -227q11 -20 36.5 -34.5t48.5 -14.5h709q23 0 48 14.5t37 34.5zM1718 667 l54 -78h-1143l53 78q13 19 39.5 33t49.5 14h859q23 0 49 -14t39 -33z" />
<glyph unicode="&#xec;" d="M688 -387l195 593l-511 359h632l195 599l196 -599h632l-512 -360l195 -588l-511 369z" />
<glyph unicode="&#xed;" d="M910 -279h200l-62 -161h-200q-109 0 -159 57t-13 153l425 1096q47 123 146.5 180t257.5 58q129 0 193.5 -69.5t26.5 -167.5l-259 -667h-412l-167 -429q-20 -50 23 -50zM1116 361h201l196 506q12 32 -8.5 54t-62.5 22q-41 0 -79.5 -22.5t-50.5 -54.5z" />
<glyph unicode="&#xee;" d="M1346 515v-616h194v-291h-681v291h193v324h-193v292h487zM1192 665q-95 0 -162.5 68t-67.5 164q0 95 68 162.5t162 67.5q96 0 164 -67.5t68 -162.5q0 -96 -68 -164t-164 -68z" />
<glyph unicode="&#xef;" d="M1206 1263q114 0 209.5 -39t156 -102.5t93.5 -139.5t33 -154q0 -84 -24 -150.5t-62 -109.5t-83.5 -80.5t-90 -73.5t-80 -77t-54 -103t-12.5 -141h-249q-9 76 -6 137.5t15 105t30.5 79.5t41 60.5t47.5 49t49.5 44t46.5 45.5t39 54t27 69t10 91q0 64 -33.5 102.5 t-106.5 38.5q-195 0 -156 -262h-334q-25 118 4 223t98 177t171 114t220 42zM1166 -41q96 0 164 -67.5t68 -162.5q0 -96 -68 -163.5t-164 -67.5q-95 0 -162.5 67.5t-67.5 163.5q0 95 67.5 162.5t162.5 67.5z" />
<glyph unicode="&#xf1;" d="M1595 900v-532h-76v420l-69 -36v78zM1679 -118q44 -44 44 -108t-45 -109t-109 -45t-108 46l-618 577l-53 -77l-53 121q-28 -5 -70 -1l-29 -104l-109 30l27 102q-33 16 -60 37l-78 -75l-79 78l76 76q-20 26 -37 62l-103 -27l-28 110l101 25q-4 39 0 74l-101 28l28 110 l102 -27q11 31 36 63l-73 73l80 80l73 -73q19 16 63 38l-25 98l110 29l26 -98q36 6 74 0l26 97l110 -29l-26 -98q21 -9 65 -37l72 72l80 -80l-75 -72q27 -37 36 -64l102 25l28 -110l-101 -26q3 -40 -1 -73l115 -44l-78 -52q491 -529 585 -622zM1499 -296q29 -29 70 -29 t70 29t29.5 70.5t-28.5 70.5t-70.5 28.5t-70.5 -29.5t-29 -70t29 -70zM638 707q29 29 29 70.5t-29 70.5q-30 30 -71 30t-70 -29q-29 -28 -28.5 -68.5t29.5 -70.5q29 -29 70 -30t70 27zM778 707q29 -29 70.5 -28t69.5 31q30 29 30 70t-28 69q-29 29 -70 29t-69 -30 q-29 -29 -30 -70.5t27 -70.5zM497 426q27 -28 69 -28t72 30q29 29 29 70t-29 69t-70 28t-70 -28q-29 -29 -29.5 -71t28.5 -70z" />
<glyph unicode="&#xf2;" d="M1381 890h270v-50l-109 -136q5 1 14 1q46 0 73.5 -36.5t27.5 -94.5v-73q0 -73 -37.5 -108.5t-100.5 -35.5q-64 0 -102 35.5t-38 108.5v59h77v-58q0 -34 16.5 -56.5t46.5 -22.5q62 0 62 79v58q0 95 -65 95q-24 0 -43 -11l-28 34l108 146h-172v66zM1679 -118 q44 -44 44 -108t-45 -109t-109 -45t-108 46l-618 577l-53 -77l-53 121q-28 -5 -70 -1l-29 -104l-109 30l27 102q-33 16 -60 37l-78 -75l-79 78l76 76q-20 26 -37 62l-103 -27l-28 110l101 25q-4 39 0 74l-101 28l28 110l102 -27q11 31 36 63l-73 73l80 80l73 -73 q19 16 63 38l-25 98l110 29l26 -98q36 6 74 0l26 97l110 -29l-26 -98q21 -9 65 -37l72 72l80 -80l-75 -72q27 -37 36 -64l102 25l28 -110l-101 -26q3 -40 -1 -73l115 -44l-78 -52q491 -529 585 -622zM1499 -296q29 -29 70 -29t70 29t29.5 70.5t-28.5 70.5t-70.5 28.5 t-70.5 -29.5t-29 -70t29 -70zM638 707q29 29 29 70.5t-29 70.5q-30 30 -71 30t-70 -29q-29 -28 -28.5 -68.5t29.5 -70.5q29 -29 70 -30t70 27zM778 707q29 -29 70.5 -28t69.5 31q30 29 30 70t-28 69q-29 29 -70 29t-69 -30q-29 -29 -30 -70.5t27 -70.5zM497 426 q27 -28 69 -28t72 30q29 29 29 70t-29 69t-70 28t-70 -28q-29 -29 -29.5 -71t28.5 -70z" />
<glyph unicode="&#xf3;" d="M1679 -118q44 -44 44 -108t-45 -109t-109 -45t-108 46l-618 577l-53 -77l-53 121q-28 -5 -70 -1l-29 -104l-109 30l27 102q-33 16 -60 37l-78 -75l-79 78l76 76q-20 26 -37 62l-103 -27l-28 110l101 25q-4 39 0 74l-101 28l28 110l102 -27q11 31 36 63l-73 73l80 80 l73 -73q19 16 63 38l-25 98l110 29l26 -98q36 6 74 0l26 97l110 -29l-26 -98q21 -9 65 -37l72 72l80 -80l-75 -72q27 -37 36 -64l102 25l28 -110l-101 -26q3 -40 -1 -73l115 -44l-78 -52q491 -529 585 -622zM1499 -296q29 -29 70 -29t70 29t29.5 70.5t-28.5 70.5t-70.5 28.5 t-70.5 -29.5t-29 -70t29 -70zM638 707q29 29 29 70.5t-29 70.5q-30 30 -71 30t-70 -29q-29 -28 -28.5 -68.5t29.5 -70.5q29 -29 70 -30t70 27zM778 707q29 -29 70.5 -28t69.5 31q30 29 30 70t-28 69q-29 29 -70 29t-69 -30q-29 -29 -30 -70.5t27 -70.5zM497 426 q27 -28 69 -28t72 30q29 29 29 70t-29 69t-70 28t-70 -28q-29 -29 -29.5 -71t28.5 -70zM1462 433h191v-65h-267q-12 65 -2 114t31.5 79.5t49.5 57t53 46t42.5 47t17.5 59.5q0 30 -15.5 47t-44.5 17q-78 0 -58 -105h-77q-12 88 26 129t109 41q62 0 99.5 -32.5t37.5 -96.5 q0 -39 -16 -73t-39.5 -56t-50 -46t-48 -45t-33.5 -51.5t-6 -66.5z" />
<glyph unicode="&#xf4;" d="M1099 639v-80h219v-253h-319v253h36v80q0 43 27 76.5t69 43.5q-13 102 -90.5 170.5t-181.5 68.5q-114 0 -194.5 -80.5t-80.5 -193.5q0 -105 106 -217l20 -21l35 36l124 -124l-34 -34l133 -133l34 34l283 -284l-131 -131l-283 284l34 34l-133 133l-34 -34l-66 66l-113 -32 l-31 -116l64 -64l-34 -33l134 -134l33 34l284 -283l-131 -131l-284 283l34 34l-133 133l-34 -34l-124 123l77 77l37 143l-140 140l75 75l140 -139l148 43l-19 20q-121 125 -121 252q0 132 94.5 228t230.5 96q123 0 214 -80t108 -208q43 -8 71.5 -42t28.5 -79v-42h-63v42 q0 25 -17.5 42t-42.5 17t-42 -17t-17 -42zM1943 517q0 -103 -73 -176t-176 -73q-104 0 -177 73t-73 176q0 44 26 115t62.5 141t73 133t62.5 102l26 40q10 -15 27 -41t60 -99t75.5 -137t59.5 -137t27 -117z" />
<glyph unicode="&#xf5;" d="M1099 639v-80h219v-253h-319v253h36v80q0 43 27 76.5t69 43.5q-13 102 -90.5 170.5t-181.5 68.5q-113 0 -193.5 -80.5t-80.5 -193.5q0 -122 89 -203l55 54l60 -60l-42 -42l374 -374l-8 -185l176 -177l-145 -146l-176 177l-187 -9l-374 375l-42 -42l-60 59l139 140l-94 94 l146 146l94 -95l49 49q-49 44 -76.5 107t-27.5 132q0 132 94 228t230 96q124 0 215 -80t107 -208q43 -8 72 -42t29 -79v-42h-64v42q0 25 -17.5 42t-41.5 17q-25 0 -42.5 -17t-17.5 -42zM1943 517q0 -103 -73 -176t-176 -73q-104 0 -177 73t-73 176q0 44 26 115t62.5 141 t73 133t62.5 102l26 40q10 -15 27 -41t60 -99t75.5 -137t59.5 -137t27 -117z" />
<glyph unicode="&#xf6;" d="M1099 639v-80h219v-253h-319v253h36v80q0 43 27 76.5t69 43.5q-13 102 -90.5 170.5t-181.5 68.5q-114 0 -194.5 -80.5t-80.5 -193.5q0 -105 106 -217l20 -21l35 36l124 -124l-34 -34l133 -133l34 34l283 -284l-131 -131l-283 284l34 34l-133 133l-34 -34l-66 66l-113 -32 l-31 -116l64 -64l-34 -33l134 -134l33 34l284 -283l-131 -131l-284 283l34 34l-133 133l-34 -34l-124 123l77 77l37 143l-140 140l75 75l140 -139l148 43l-19 20q-121 125 -121 252q0 132 94.5 228t230.5 96q123 0 214 -80t108 -208q43 -8 71.5 -42t28.5 -79v-42h-63v42 q0 25 -17.5 42t-42.5 17t-42 -17t-17 -42zM1593 1064h366l-202 -387h332l-625 -511l251 455h-214z" />
<glyph unicode="&#xf9;" d="M1595 900v-532h-76v420l-69 -36v78zM1679 -118q44 -44 44 -108t-45 -109t-109 -45t-108 46l-618 577l-53 -77l-53 121q-28 -5 -70 -1l-29 -104l-109 30l27 102q-33 16 -60 37l-78 -75l-79 78l76 76q-20 26 -37 62l-103 -27l-28 110l101 25q-4 39 0 74l-101 28l28 110 l102 -27q11 31 36 63l-73 73l80 80l73 -73q19 16 63 38l-25 98l110 29l26 -98q36 6 74 0l26 97l110 -29l-26 -98q21 -9 65 -37l72 72l80 -80l-75 -72q27 -37 36 -64l102 25l28 -110l-101 -26q3 -40 -1 -73l115 -44l-78 -52q491 -529 585 -622zM1499 -296q29 -29 70 -29 t70 29t29.5 70.5t-28.5 70.5t-70.5 28.5t-70.5 -29.5t-29 -70t29 -70zM638 707q29 29 29 70.5t-29 70.5q-30 30 -71 30t-70 -29q-29 -28 -28.5 -68.5t29.5 -70.5q29 -29 70 -30t70 27zM778 707q29 -29 70.5 -28t69.5 31q30 29 30 70t-28 69q-29 29 -70 29t-69 -30 q-29 -29 -30 -70.5t27 -70.5zM497 426q27 -28 69 -28t72 30q29 29 29 70t-29 69t-70 28t-70 -28q-29 -29 -29.5 -71t28.5 -70z" />
<glyph unicode="&#xfa;" d="M1099 639v-80h219v-253h-319v253h36v80q0 43 27 76.5t69 43.5q-13 102 -90.5 170.5t-181.5 68.5q-113 0 -193.5 -80.5t-80.5 -193.5q0 -122 89 -203l55 54l60 -60l-42 -42l374 -374l-8 -185l176 -177l-145 -146l-176 177l-187 -9l-374 375l-42 -42l-60 59l139 140l-94 94 l146 146l94 -95l49 49q-49 44 -76.5 107t-27.5 132q0 132 94 228t230 96q124 0 215 -80t107 -208q43 -8 72 -42t29 -79v-42h-64v42q0 25 -17.5 42t-41.5 17q-25 0 -42.5 -17t-17.5 -42zM1593 1064h366l-202 -387h332l-625 -511l251 455h-214z" />
<glyph unicode="&#xfb;" d="M1679 -118q44 -44 44 -108t-45 -109t-109 -45t-108 46l-618 577l-53 -77l-53 121q-28 -5 -70 -1l-29 -104l-109 30l27 102q-33 16 -60 37l-78 -75l-79 78l76 76q-20 26 -37 62l-103 -27l-28 110l101 25q-4 39 0 74l-101 28l28 110l102 -27q11 31 36 63l-73 73l80 80 l73 -73q19 16 63 38l-25 98l110 29l26 -98q36 6 74 0l26 97l110 -29l-26 -98q21 -9 65 -37l72 72l80 -80l-75 -72q27 -37 36 -64l102 25l28 -110l-101 -26q3 -40 -1 -73l115 -44l-78 -52q491 -529 585 -622zM1499 -296q29 -29 70 -29t70 29t29.5 70.5t-28.5 70.5t-70.5 28.5 t-70.5 -29.5t-29 -70t29 -70zM638 707q29 29 29 70.5t-29 70.5q-30 30 -71 30t-70 -29q-29 -28 -28.5 -68.5t29.5 -70.5q29 -29 70 -30t70 27zM778 707q29 -29 70.5 -28t69.5 31q30 29 30 70t-28 69q-29 29 -70 29t-69 -30q-29 -29 -30 -70.5t27 -70.5zM497 426 q27 -28 69 -28t72 30q29 29 29 70t-29 69t-70 28t-70 -28q-29 -29 -29.5 -71t28.5 -70zM1462 433h191v-65h-267q-12 65 -2 114t31.5 79.5t49.5 57t53 46t42.5 47t17.5 59.5q0 30 -15.5 47t-44.5 17q-78 0 -58 -105h-77q-12 88 26 129t109 41q62 0 99.5 -32.5t37.5 -96.5 q0 -39 -16 -73t-39.5 -56t-50 -46t-48 -45t-33.5 -51.5t-6 -66.5zM1979 717v39q0 37 -16 58t-46 21q-35 0 -48.5 -25.5t-13.5 -74.5v-233q0 -37 16 -58t46 -21q62 0 62 79v58h76v-59q0 -73 -37.5 -108.5t-100.5 -35.5t-100.5 35.5t-37.5 108.5v256q0 73 37.5 108.5 t100.5 35.5t100.5 -35.5t37.5 -108.5v-40h-76zM2126 891h127q81 0 114 -42.5t33 -133.5v-196q0 -77 -39 -114t-108 -37h-127v523zM2324 518v202q0 53 -15.5 79t-55.5 26h-51v-392h51q37 0 54 20.5t17 64.5z" />
<glyph unicode="&#xfc;" d="M1381 890h270v-50l-109 -136q5 1 14 1q46 0 73.5 -36.5t27.5 -94.5v-73q0 -73 -37.5 -108.5t-100.5 -35.5q-64 0 -102 35.5t-38 108.5v59h77v-58q0 -34 16.5 -56.5t46.5 -22.5q62 0 62 79v58q0 95 -65 95q-24 0 -43 -11l-28 34l108 146h-172v66zM1679 -118 q44 -44 44 -108t-45 -109t-109 -45t-108 46l-618 577l-53 -77l-53 121q-28 -5 -70 -1l-29 -104l-109 30l27 102q-33 16 -60 37l-78 -75l-79 78l76 76q-20 26 -37 62l-103 -27l-28 110l101 25q-4 39 0 74l-101 28l28 110l102 -27q11 31 36 63l-73 73l80 80l73 -73 q19 16 63 38l-25 98l110 29l26 -98q36 6 74 0l26 97l110 -29l-26 -98q21 -9 65 -37l72 72l80 -80l-75 -72q27 -37 36 -64l102 25l28 -110l-101 -26q3 -40 -1 -73l115 -44l-78 -52q491 -529 585 -622zM1499 -296q29 -29 70 -29t70 29t29.5 70.5t-28.5 70.5t-70.5 28.5 t-70.5 -29.5t-29 -70t29 -70zM638 707q29 29 29 70.5t-29 70.5q-30 30 -71 30t-70 -29q-29 -28 -28.5 -68.5t29.5 -70.5q29 -29 70 -30t70 27zM778 707q29 -29 70.5 -28t69.5 31q30 29 30 70t-28 69q-29 29 -70 29t-69 -30q-29 -29 -30 -70.5t27 -70.5zM497 426 q27 -28 69 -28t72 30q29 29 29 70t-29 69t-70 28t-70 -28q-29 -29 -29.5 -71t28.5 -70zM1979 717v39q0 37 -16 58t-46 21q-35 0 -48.5 -25.5t-13.5 -74.5v-233q0 -37 16 -58t46 -21q62 0 62 79v58h76v-59q0 -73 -37.5 -108.5t-100.5 -35.5t-100.5 35.5t-37.5 108.5v256 q0 73 37.5 108.5t100.5 35.5t100.5 -35.5t37.5 -108.5v-40h-76zM2126 891h127q81 0 114 -42.5t33 -133.5v-196q0 -77 -39 -114t-108 -37h-127v523zM2324 518v202q0 53 -15.5 79t-55.5 26h-51v-392h51q37 0 54 20.5t17 64.5z" />
<glyph unicode="&#x2020;" d="M1401 802h-403v71h403v-71zM1004 363q-49 0 -68 42h-229v70h229q20 40 68 40q46 0 68 -40h257q20 40 68 40q46 0 68 -40h228v-70h-228q-21 -42 -68 -42q-49 0 -68 42h-257q-21 -42 -68 -42zM1200 560q-48 0 -68 43h-229v70h229q19 41 68 41t68 -41h229v-70h-229 q-20 -43 -68 -43zM807 164q-46 0 -68 41h-228v71h228q25 41 68 41q22 0 40.5 -11.5t27.5 -29.5h257q9 18 27.5 29.5t40.5 11.5q21 0 40 -11.5t28 -29.5h257q21 41 68 41q44 0 67 -41h229v-71h-229q-20 -41 -67 -41q-49 0 -68 41h-257q-19 -41 -68 -41t-68 41h-257 q-19 -41 -68 -41zM2085 70v-70h-227q-22 -42 -69 -42q-46 0 -68 42h-256q-22 -42 -68 -42q-48 0 -68 42h-257q-22 -42 -68 -42q-48 0 -68 42h-258q-22 -41 -67 -41q-46 0 -68 41h-228v70h227q21 44 69 44t69 -44h256q20 44 68 44q47 0 68 -44h257q20 44 68 44q47 0 68 -44 h256q21 44 68 44q48 0 69 -44h227zM2060 433h191v-65h-267q-12 65 -2 114t31.5 79.5t49.5 57t53 46t42.5 47t17.5 59.5q0 30 -15.5 47t-44.5 17q-78 0 -58 -105h-77q-12 88 26 129t109 41q62 0 99.5 -32.5t37.5 -96.5q0 -39 -16 -73t-39.5 -56t-50 -46t-48 -45t-33.5 -51.5 t-6 -66.5zM200 717v39q0 37 -16 58t-46 21q-35 0 -48.5 -25.5t-13.5 -74.5v-233q0 -37 16 -58t46 -21q62 0 62 79v58h76v-59q0 -73 -37.5 -108.5t-100.5 -35.5t-100.5 35.5t-37.5 108.5v256q0 73 37.5 108.5t100.5 35.5t100.5 -35.5t37.5 -108.5v-40h-76zM347 891h127 q81 0 114 -42.5t33 -133.5v-196q0 -77 -39 -114t-108 -37h-127v523zM545 518v202q0 53 -15.5 79t-55.5 26h-51v-392h51q37 0 54 20.5t17 64.5z" />
<glyph unicode="&#x2039;" d="M843 -287q0 94 56 179l228 341h94l-197 -283q51 33 112 33q60 0 117 -33l199 283h94v-521h113v-63h-113v-122h101v-68h-279v68h102v122h-89q-22 -90 -96 -148.5t-169 -58.5q-113 0 -193 79.5t-80 191.5zM1558 829q0 -94 -56 -179l-228 -341h-94l197 283q-51 -33 -112 -33 q-99 0 -176 79.5t-77 190.5q0 112 80 191.5t193 79.5t193 -79.5t80 -191.5zM1090 829q0 -83 56.5 -141t138.5 -58q83 0 139 58t56 141q0 84 -56 142t-139 58q-82 0 -138.5 -58t-56.5 -142zM1301 -351h-259l168 239q-45 24 -94 24q-83 0 -139 -58t-56 -141q0 -84 56 -142 t139 -58q65 0 115.5 38t69.5 98zM966 1083v-707h101v-67h-279v67h102v644h-150v63h226zM1389 -288h81v429l-161 -235q80 -82 80 -193v-1zM1311 -288v1q0 73 -46 129l-90 -130h136z" />
<glyph unicode="&#x20ac;" d="M1058 -69q0 94 56 179l228 341h94l-197 -283q51 33 112 33q60 0 117 -33l199 283h94v-521h113v-63h-113v-122h101v-68h-279v68h102v122h-89q-22 -90 -96 -148.5t-169 -58.5q-113 0 -193 79.5t-80 191.5zM1344 683q0 -94 -56 -179l-228 -341h-94l197 283q-51 -33 -112 -33 q-99 0 -176 79.5t-77 190.5q0 112 80 191.5t193 79.5t193 -79.5t80 -191.5zM876 683q0 -83 56.5 -141t138.5 -58q83 0 139 58t56 141q0 84 -56 142t-139 58q-82 0 -138.5 -58t-56.5 -142zM1516 -133h-259l168 239q-45 24 -94 24q-83 0 -139 -58t-56 -141q0 -84 56 -142 t139 -58q65 0 115.5 38t69.5 98zM752 937v-707h101v-67h-279v67h102v644h-150v63h226zM1604 -70h81v429l-161 -235q80 -82 80 -193v-1zM1526 -70v1q0 73 -46 129l-90 -130h136z" />
<glyph unicode="&#x2202;" d="M2014 657q22 -59 -13.5 -145.5t-149.5 -191.5q25 -107 -40.5 -196.5t-176.5 -89.5q-80 0 -145 53q-409 -198 -750 -198q-155 0 -240 43t-109 105q-9 23 -10 50.5t9 63.5t32 74t63 84.5t97 93.5q-20 60 -19.5 119.5t26.5 114t65.5 96t97 66.5t121.5 25q146 0 250 -127 q318 109 539 109q156 0 243 -44t110 -105zM1747 456q101 101 87 136q-9 23 -66 33t-107 10q-202 0 -479 -98q8 -136 -84 -237t-226 -101q-102 0 -191 66q-47 -41 -76.5 -78t-37.5 -56.5t-4 -27.5q6 -17 45 -27.5t70.5 -12.5t60.5 -2q303 0 665 175l6 2v6q-6 69 30 130 q29 51 81.5 82t111.5 31q56 0 114 -31z" />
<glyph unicode="&#x25fc;" horiz-adv-x="725" d="M0 725h725v-725h-725v725z" />
<glyph horiz-adv-x="500" />
<glyph d="M947 849h506v-1000h-364v50h286v132h-156v50h156v132h-286v50h286v131h-156v50h156v132h-286v50h286v145h-350v-922h-78v1000z" />
<glyph d="M2080 742v-4q-2 -3 -3 -3l-97 -38q-3 -2 -6 1q-1 3 -4 4h-1q-1 1 -2 1l-2 1h-4l-2 -1l-14 -7l-13 -6l-12 -6q-4 -3 -12 -7l-11 -8l-11 -9l-10 -9l-10 -11l-11 -12l-620 -760l-9 -10l-9 -9q-11 -11 -17 -15l-11 -7l-11 -6q-8 -3 -10 -4q-8 -2 -13 -2q-2 -2 -18 -2h-8 q-9 0 -15 3q-6 1 -14 7l-10 12l-6 16q-1 2 -1 8q-3 -7 -9 -17q-22 -33 -72 -36q-6 -1 -20 -1q-20 0 -60 4q-14 2 -21 2l-60 6h-2l-120 12q-142 12 -212 17l-103 8l-30 2q-3 1 -7 1q-17 0 -24 3q-13 5 -19 17.5t-2 25.5q5 16 33 31q1 1 4 2.5t4 2.5l53 32l103 64 q245 153 404 259l55 39l9 6l-106 343v4l4 3l59 18q2 1 5 0q2 -2 2 -3l16 -52q18 -55 55 -94l10 -7q8 -3 26 -4q20 5 55 15q110 33 128 40l85 31l44 18l46 19q44 18 90 39l82 37q26 13 74 35l68 34l62 31q22 11 54 29l25 13l22 13q2 0 3 1l3 3q0 1 1 1v3v1l-1 2q-1 3 3 7 l80 31h2q5 0 5 -3zM1090 345q-14 -9 -24 -13l108 -351l2 -3v-1q1 -1 1 -2q2 -2 2 -3l3 -2l2 -2l4 -2l8 -3h6q2 0 4 0.5t3 0.5q5 2 7 4q3 2 5 5l644 834q1 1 1 2v2q0 1 -1 1q0 1 -1 1h-1q-2 0 -3 -1l-89 -45l-77 -40l-67 -36l-56 -31q-22 -11 -52 -29l-44 -26 q-19 -11 -37 -24l-31 -22l-2 -1l-10 -8l-1 -1l-12 -10l-8 -7l-6 -4l-8 -1q-15 7 -37 23l-5 1l-56 -11l-48 -19l-8 -4l-8 -4q-5 -3 -14 -8.5t-13.5 -9t-11 -9.5t-10.5 -13q-36 -53 -43 -82l-2 -8v-3q2 -10 1 -15q-3 -11 -15 -20zM1073 8q5 36 -2 58l-71 230q-58 -33 -104 -62 q-8 -5 -141 -88l-135 -86l-9 -6q-71 -45 -108 -75q-1 -1 -3 -2.5t-3 -3t-2 -2.5q-14 -14 -17 -25q-3 -6 -1 -18q1 -7 10 -16v-1q9 -5 25 -5h56q78 -2 117 -2q20 0 30 -1h118l79 3q6 0 18.5 0.5t18.5 0.5h5q9 0 25 2h2q7 0 9 2q13 7 29 24q17 16 24 29v1q14 26 28 36l1 1 q0 1 0.5 3t0.5 3zM1093 483h-1l-5 -3q-2 -1 -6 -5l-5 -7l-6 -10l-6 -12q-1 -2 -2.5 -5.5t-2.5 -5.5q-2 -6 -4 -10q-2 -8 -2 -10q-2 -6 -2 -9q0 -1 -0.5 -4t-0.5 -5q0 -1 0.5 -4t0.5 -5v-1l13 35l5 10q0 1 1.5 4.5t2.5 5.5l4 9l1 2l3 7z" />
<glyph d="M372 -77q0 6 6 14v18q-1 1 1 5l10 16l6 10l8 11l13 18q2 2 3 2l183 194l316 336l-34 102v5l4 3l54 18h2q5 0 6 -4l25 -76l13 5l860 320l-4 11q-1 4 4 8l83 32q1 1 2 1q4 0 6 -4l10 -22l4 -9l16 -55l4 -10v-1l41 -79q3 -9 3 -11l7 -24l5 -18q0 -6 -4 -7l-83 -33h-3 q-3 0 -5 3l-9 16l-2 3l-12 -9q-37 -29 -59 -58l-6 -8l-21 -29l-596 -785l-2 -2q-10 -26 -37 -26h-1q-9 0 -19 5q-3 0 -4 1h-121q-4 1 -13 1h-25q-3 -1 -10 -1q-8 0 -12 1h-76q-6 0 -20 0.5t-22 0.5h-115q-16 1 -48 1h-41q-17 0 -62 9l-4 1l-64 16h-2l-45 11h-3l-28 7 q-1 0 -4 3l-29 33q-4 4 -4 8v1l-1 8q0 2 -3 2t-3 -3l1 -4v-1q0 -4 -3 -6l2 -14l2 -18q1 -3 -1 -12q-7 -17 -25 -17q-6 0 -8 1q-1 0 -1 0.5t-1 0.5l-2 3l1 2v2l4 4q-2 2 -4 6v4q-1 0 -1 1q0 4 2 8l1 1q5 14 0 27q-4 7 -4 18v1q-4 2 -2 7zM1067 562l-3 -1l-69 -25l204 -612 l641 861l39 53l-22 -7l-39 -10l-2 -1l-72 -19q-8 -2 -12 -4l-4 -1q-66 -20 -95 -30l-41 -14q-269 -96 -525 -190zM454 -7q0 -4 -1 -5l-6 -7q-4 -6 -4 -9q0 -2 8 -6q20 -11 23 -43q0 -1 0.5 -2.5t0.5 -2.5q0 -6 1 -8q1 0 1 -1l66 -16l63 -13l3 -1l8 -2q1 0 4.5 -0.5t5.5 -0.5 q4 -1 19 -2h35l138 3l137 3h83q3 0 9 0.5t10 0.5h82l-206 618l-14 -16l-291 -304zM392 -138q0 -1 1 -1h1v1l-1 1z" />
<glyph d="M1948 940q35 -115 83 -225v-5q-3 -3 -4 -3l-83 -31q-4 0 -5 1q-3 0 -3 3q-2 6 -4 14l-171 -219l-508 -669q-2 -2 -5 -2t-4 1l-7 5q-13 -13 -30 -13h-1q-16 0 -25 8l-120 13h-1l-85 9l-178 21l-172 19h-1l-23 2q-52 3 -84 24l-45 30q0 1 -1 1t-3 1.5t-3 1.5l-2 1l-3 2h-1 v-1h-2q-1 0 -1 -1h-1l-1 -1l-1 -1v-1h-1v-2l-1 -1v-1l-1 -1v-1l-1 -2l-4 -7l-1 -1v-1l-2 -2h-1q0 -1 -1 -1h1l-3 -1h-2l-9 -2h-2q-1 -1 -2 -1l-2 1q-3 1 -3 5v1l-1 1v3l-2 8q0 2 -3 2q-2 0 -2 -3l1 -5q0 -2 -1 -4h1l3 -15l3 -18q1 -6 0 -13q-6 -21 -28 -21q-6 0 -8 1h-3v1 q-3 3 -3 5q0 4 1 6l2 2q-4 5 -4 13v3l1 4q6 13 -1 26q-6 10 -4 23v4q2 8 6 14l-2 12q0 5 3 10l2 4l1 1v1q1 1 1 2q1 1 1 3t-1 3q0 2 -1 3q0 1 -1 3q-2 4 -2 6q-2 9 -1 13q2 7 5 12l23 34l4 5v1h1l1 1q4 3 9 3l392 431l106 121l-25 75q-2 6 4 8l53 17q1 1 2 1q4 0 6 -4 l19 -59l885 237q-2 3 -7 16q-1 1 -1 4l1 3q0 3 4 5l80 29q2 1 6 -1l2 -2q2 -2 2 -3zM1892 811q-1 1 -1 3q-2 2 -2 4l-896 -219l231 -703l244 330l227 312zM1158 -122l-224 683l-88 -99l-398 -426v-3q0 -2 -1 -2q-5 -12 -12 -20v-2h-1v-5l1 -2v-1l1 -1h1q0 -1 1 -1l45 -25 q1 0 1 -1l3 -1l3 -1v-1l43 -27q22 -14 92 -21h11l438 -36z" />
<glyph d="M370 -70v1q1 6 6 14l-2 11q0 8 3 11l2 4q1 0 1 1q1 1 1 2q1 1 1 3q0 3 -1 4q0 2 -1 3q-3 6 -3 8q-2 10 -1 14q2 8 5 12l23 33q2 4 3 5l1 1q1 1 2 1v1l9 3l392 430l106 121l-25 76q-1 4 4 8l53 17h2q5 0 6 -4l133 -407l765 586q1 0 1 1q3 0 4 1l-1 1q0 1 -5 13q-1 1 -1 3 l1 3q0 3 4 5l80 29q3 2 6 -1l2 -2q2 -2 2 -3q32 -105 82 -225q2 -2 0 -4q0 -2 -3 -4l-83 -30q-3 -2 -5 0q-3 2 -3 4q-2 3 -4 13l-171 -219q-4 -5 -242 -317.5t-266 -350.5q-1 -3 -5 -3l-2 1h-2l-7 5q-13 -13 -30 -13h-1q-14 0 -25 8l-120 14h-1l-85 9l-178 21l-172 18h-1 q-16 2 -23 2q-21 2 -30 3t-23.5 6.5t-30.5 15.5l-45 30h-1q-1 0 -3.5 1.5t-2.5 2.5h-2l-3 2h-1v0h-1v0l-1 -1h-1l-1 -1l-1 -1v0l-1 -1v0l-1 -1v-1v-1l-1 -1v0q0 -1 -0.5 -1t-0.5 -1l-1 -2l-4 -8h-1v-1l-1 -1l-1 -1l-1 -1v0l-3 -1q-1 0 -2 -1l-9 -1l-2 -1h-2q-2 0 -2 1 q-3 1 -3 4l-1 2v1v1v1l-2 8q0 3 -3 2q-2 0 -2 -3l1 -4q0 -3 -1 -4l4 -16l3 -17q2 -7 0 -13q-7 -22 -28 -22q-6 0 -8 1l-3 1v1q-3 3 -3 4q0 4 1 6l2 3q-4 4 -4 13v2l1 5q6 12 -1 25q-6 10 -4 23v3v1zM1108 248l116 -352l244 330l227 311l196 274v3l-3 6zM434 5v-1v-1l1 -1v-1 l1 -1l1 -1l1 -1l45 -24l1 -1q3 -3 6 -3l43 -28q26 -16 92 -20l10 -1h1l438 -35l84 -9l-224 683l-88 -98l-398 -427v-3q0 -1 -1 -2q-5 -11 -12 -20v-1q-1 0 -1 -1v-3z" />
<glyph d="M374 -97q-6 10 -4 23v5q2 8 6 14l-2 12q0 7 3 10l2 4l1 1v1q1 1 1 2q1 1 1 3t-1 3q0 2 -1 3q-3 6 -3 9q-2 9 -1 13q2 8 5 12l23 33l3 5l3 3q1 0 3 1q4 2 6 2l392 430l106 121l-25 76q-2 6 4 8l53 17q1 0 1 0.5t1 0.5q4 0 6 -5l158 -481l138 42q103 37 122 51q8 6 18 15.5 t19 19t17 18t13 14.5l6 6l413 492v1l-7 17q-1 1 -1 4l1 3q0 4 4 4l80 30q4 0 6 -2l2 -2q2 0 2 -3q33 -108 82 -224q2 -3 0 -5q0 -2 -3 -4l-83 -30h-5q-3 2 -3 4q-2 6 -4 14l-171 -220q-3 -3 -237.5 -311.5t-270.5 -356.5q-1 -3 -5 -3q-2 0 -4 2l-7 5q-11 -12 -30 -14h-1 q-14 0 -25 8l-120 14h-1l-85 9l-178 21l-172 18h-1q-16 2 -23 2q-21 2 -30 3t-23.5 6.5t-30.5 15.5l-45 30h-1l-6 4l-2 1l-3 1h-3l-1 -1l-1 -1q-1 0 -1 -1h-1v-2h-1v-1l-1 -1v-1q0 -1 -0.5 -1t-0.5 -1l-1 -2l-4 -7l-1 -1v-1l-2 -2q-1 0 -1 -1h-1l-2 -1h-2l-9 -2q-2 0 -2 -1 h-2l-2 1q-3 1 -3 5l-1 1v3l-2 8q0 3 -3 3q-2 -2 -2 -4l1 -4q0 -3 -1 -4l4 -16l3 -17q2 -7 0 -13q-7 -22 -28 -22q-2 0 -4.5 0.5t-3.5 0.5l-3 1v1q-3 3 -3 4q0 5 1 6l2 3q-4 5 -4 13v3l1 4q6 12 -1 25zM434 4l1 -2v-1l2 -2h1l45 -25l1 -1q3 0 6 -3l43 -27q26 -17 92 -21 l10 -1h1l438 -35l84 -9l-224 683l-88 -98l-398 -427v-3q0 -1 -1 -2q-5 -11 -12 -20v-1h-1v-5zM1134 169l90 -273l244 330l227 311l196 274q-2 8 -4 12l-399 -482q0 -1 -12 -14t-31 -31t-33 -29q-31 -25 -94 -46z" />
<glyph d="M2073 724v-5q-3 -3 -4 -3l-85 -32q-2 -2 -5 0l-3 4l-13 39l-35 -44q-1 -2 -6 -4q-2 -1 -6 -1q-13 -31 -28 -60l-10 -20q-20 -40 -31 -60l-8 -15v-1q-82 -150 -174 -283l-13 -18q-120 -152 -247 -276l-150 -149q-1 -1 -3 -1q-12 -9 -26 -9h-1q-18 0 -32 14l-116 13 q-29 4 -83.5 10.5t-74.5 9.5l-43 5l-140 17q-59 8 -94 11l-74 9q-47 6 -71 17q-19 8 -45 27h-1l-10 7l-1 1l-17 10q-1 0 -3 1t-3 1q-2 0 -5 -2l-2 -2v-2l-4 -6q0 -2 -2 -4q-4 -8 -18 -10h-5q-3 0 -4 1q-2 2 -2 4q0 3 -1 4q-1 10 -3 10h-1q-3 0 -3 -3l1 -1q0 -7 -1 -8l1 -1 l3 -15l3 -18q2 -6 0 -13q-7 -22 -29 -22q-2 0 -8 2h-3v1l-3 4q0 5 2 7l2 2q-5 7 -5 13q0 2 1 3l1 4q5 14 -1 26q-5 9 -5 23q1 2 1 5l3 10l1 1l1 1v1q1 3 0 8v3q-1 9 5 17v1q3 4 0 13l-3 8q-3 15 7 28l4 6l8 12q2 4 4 6q8 15 17 18l1 1l24 25l27 28l33 34l22 24l88 92l81 85 q108 114 114 120l76 80l42 43l21 22l1 1q1 1 1 2l4 3l-21 60q-2 6 3 8l55 19q2 1 5 0l3 -4l189 -543q46 -4 69 -4q180 0 325 109l4 6l8 13q210 298 335 639l-18 43q-1 1 -1 4l1 3q0 4 4 4l81 31q4 2 6 -1l3 -2l2 -3q51 -157 111 -292zM407 51q0 -6 -4 -14q-2 -4 -4 -6 q-6 -7 -7 -13q0 -6 7 -10l42 -24l38 -22q41 -25 82 -30q28 -2 82 -8l115 -11l53 -5q11 -1 36.5 -3.5t38.5 -4.5q35 -2 89 -8l109 -11l90 -9l-248 712v-1l-34 -34l-43 -44l-40 -41l-3 -3l-44 -45q-12 -12 -34 -35t-40.5 -41.5t-34.5 -35.5l-81 -83l-158 -162zM1442 139 q-15 -6 -56 -20l-21 -5q-77 -20 -153 -20q-12 0 -42 2l67 -191l29 29q7 7 34.5 36t37.5 41q55 62 104 128z" />
<glyph d="M332 -88q-5 9 -5 23q1 10 8 20l-2 11q0 6 3 11l3 4v1l2 2v7q-1 1 -1 3q-2 3 -4 9q-1 7 0 14q0 4 4 12l8 11l4 5v1l3 4l6 9l4 5l3 4q0 1 1 1l2 3l117 125h1l129 136l292 306l-20 59l60 22l214 -613l41 14l239 88q69 24 103 90l122 286q40 97 90 181q56 93 131 169l-20 47 l-1 1l1 6l85 32l5 -4v-1q47 -143 111 -292l2 -3l-91 -35l-1 3l-22 64q-76 -62 -119 -146l-84 -146l-90 -174l-7 -13q-5 -10 -38 -68q-139 -231 -354 -397q-13 -23 -39 -23h-1q-17 0 -32 13l-643 77q-45 5 -84 31l-40 27l-4 2l-3 2h-1l-1 -1h-2v-1h-1l-1 -1l-1 -1v-1h-1v-1 l-1 -1v-1h-1q0 -2 -1 -3l-6 -12v-1h-1v-1l-2 -2q-1 0 -1 -1h-1l-2 -1h-2l-8 -2h-1l-2 -1h-1q-1 1 -2 1q-3 1 -3 5l-1 4v4l-2 8q0 2 -3 2q-2 0 -2 -1v-2v-5q1 -1 -1 -5l4 -15l3 -18q2 -7 -1 -13q-5 -22 -29 -22q-5 0 -7 1v-1l-4 2h1q-3 3 -3 5q-1 2 1 6l2 3q-3 4 -5 12l2 8 q5 12 -1 27zM663 308l-129 -133l-125 -132q0 -1 -1 -2l-12 -20q0 -1 -1 -1v-1q0 -1 -1 -3v-2l1 -1v-1l1 -1v-1h1v-1h1l46 -26l1 -1h1q2 0 2 -1l35 -22q33 -23 79 -28l617 -59l-249 712l-33 -36l-89 -91q-1 0 -1 -1l-145 -148h1zM1191 31l49 -140q123 101 197 208l-205 -56z " />
<glyph d="M415 -61v-1l9 -11l-13 7v-1l-1 -1v-1l-1 -1v-1l-7 -12v-1l-1 -1q0 -1 -1 -1l-1 -1q0 -1 -1 -1l-3 -1h-1l-9 -2h-1l-1 -1h-1h-1q-1 1 -2 1q-3 1 -3 5v4l-1 1v3l-1 8q-2 3 -4 2q-4 0 -2 -3v-5q2 0 0 -2l1 -2l3 -16l3 -18q2 -6 0 -13q-7 -22 -29 -22q-6 0 -8 1h-2l-1 1 q-6 5 -2 11l2 3q-4 5 -4 13h-1l1 2v2l1 4q6 12 -1 26q-5 13 -4 24v4q2 8 6 14v1l-2 12q0 5 3 10v1l3 4l2 3v7l-1 1v2q-2 3 -4 9q-1 7 0 14q2 9 5 12l11 16l3 5l14 19v1q1 0 1 0.5t1 0.5q5 3 8 3l27 22l67 57l70 59l36 30l59 49l70 59l78 65l77 64l23 19l19 16l11 9l3 2 l30 26q1 0 1 0.5t1 0.5l-22 63l61 21l174 -502l332 -22q8 14 11 21q75 138 133 253q72 142 128 257l59 124l1 1q28 60 43 90l22 47l-19 57v4l1 2q3 3 4 3l83 32q3 0 5 -1l1 -1q3 0 3 -3l102 -243q1 -3 1 -9v-23q1 -4 -4 -6l-85 -32q-4 -1 -7 2l-15 17q-1 0 -1 1l-2 -3 q-12 -10 -19 -18l-5 -4l-17 -17q-7 -8 -17 -23q-12 -17 -32 -54q-5 -11 -35 -68l-13 -26l-42 -81q-16 -29 -46 -89q-32 -61 -54 -106l-1 -2l-62 -120q-16 -31 -45 -90l-1 -1q-3 -6 -17 -35q-40 -80 -75 -115q-32 -31 -69 -44q-29 -11 -88 -15h-15q-2 -1 -5 -1h-7l-27 -2h-3 q-11 -9 -29 -11q-19 0 -33 14l-17 3q-16 2 -23 2l-43 6h-6q0 1 -1 1h-1l-9 1l-49 6q-2 0 -4 0.5t-4 0.5l-55 7h-5l-2 1l-26 3h-7v1l-82 10h-1l-18 2q-3 1 -8 1l-10 2h-1l-46 5q-12 2 -17 2l-9 1l-1 1l-8 1q-24 2 -35 4l-110 13h-2l-1 1h-7l-41 5q-30 4 -125 59l-3 2h-1l-4 2 h-1l-1 -1h-2zM963 505l-12 -10l-22 -18l-20 -16l-1 -1l-39 -31l-46 -38l-197 -161l-110 -90l-10 -8q-50 -40 -69 -57l-26 -22l-2 -1q0 -1 -0.5 -3t-0.5 -3t-1 -2q-2 -3 -6 -10t-6 -10l-1 -1v-1q-1 -1 -1 -3v-3q1 0 1 -2l1 -1l1 -1h1l46 -27h2q0 -1 2 -1q79 -48 103 -50l7 -1 h2l73 -7q2 0 5 -0.5t5 -0.5l92 -9q11 -2 31 -4l52 -5h5l12 -1l26 -3q2 0 5 -0.5t4 -0.5q7 0 10 -1l16 -1q1 0 2.5 -0.5t2.5 -0.5h1l66 -6l15 -2q2 0 4.5 -0.5t3.5 -0.5l77 -7l41 -5l78 -7l-220 636q-1 0 -1 -1q-1 0 -2 -1zM1185 70l50 -145q5 0 13 0.5t12 0.5l89 8 q36 4 55 25q11 10 28 42l6 12l1 1l-34 27q-2 0 -4 2h-1l-2 2l-2 1h-4q-1 1 -2 1t-2 1l-21 2l-26 3q-8 2 -13 2h-3q-12 2 -18 2q-12 2 -33 4h-1l-22 3l-21 2q-5 0 -17 2l-17 1q-3 1 -11 1z" />
<glyph d="M326 -53l-3 42q0 8 4 15l3 5q1 0 1 1v4l-1 1v1l-1 1q-1 1 -1 3l-2 3q0 3 -1 4v13q1 1 1 3v1l1 2l2 4v1q2 2 2 3l29 39l3 3l3 1q1 1 2 1l224 223l284 283l9 10l-17 56q-2 2 0 5l4 3l54 17q3 0 5 -1l3 -3l190 -607q4 -12 7 -17l4 -8l17 -14q29 -24 68 -26h126q24 0 50 13 l98 52q30 46 47 91l189 499q60 132 157 249l-10 22l-4 4q-2 2 -2 7l1 3q2 7 9 7h2q2 0 3 -1l67 25l2 3q1 3 7 3q2 0 6 -2l2 -2q2 -2 4 -7q0 -3 -2 -5q45 -143 104 -283v-5q-2 -3 -4 -3l-84 -31h-5l-3 4q-1 7 -5 14q-107 -61 -183 -163q-2 -2 -5 -2h-3q0 1 -1 1l-3 2 l-154 -406q-51 -119 -148 -202t-221 -115q-14 -11 -29 -11h-1q-21 0 -34 15l-701 107h-2q-1 -1 -2 -1h-1l-15 2l-3 1q-2 0 -2 1q-2 0 -6 2l-4 3q-2 0 -4 2l-1 1l-22 18h-1q-1 0 -1 -1l-7 -8q-3 -4 -10 -4q-4 0 -6 1q7 -7 0 -16l-2 -4q-4 -4 -9 -4h-4q-10 0 -17 6l-39 31 q-8 6 -8 15zM404 62l-15 -24l-1 -1v-1v-1l1 -2v-1l11 -8l81 -58h1l1 -1q1 0 2 -0.5t2 -0.5l3 -2h4q5 0 45 -6h3l270 -36q8 0 346 -45l-91 165v1l-7 16l-157 499l-470 -458l-26 -25l2 -26zM1198 -48l43 -73q71 26 132 73q-18 -2 -27 -2h-127q-7 0 -21 2zM1833 652 q56 50 122 86q-17 50 -22 64l-11 -15l-42 -56q-25 -37 -47 -79z" />
<glyph d="M2072 757l5 -12q4 -6 -3 -8l-83 -35q-1 -1 -4 -1q-3 1 -4 4l-5 11v4q-40 -18 -89.5 -54t-77.5 -67q-2 -2 -5 -2l-148 -470q-33 -107 -132.5 -205t-206.5 -130q-14 -7 -25 -7h-1q-13 0 -23 6l-423 65h-1l-216 48l-161 26q-3 -3 -6 -3l-24 3q-10 2 -19 7l-57 36h-1 q-2 0 -3 -1v-3l1 -1l40 -25q8 -5 6 -15q-3 -8 -12 -8h-4l-39 12q-10 2 -15 9q-13 10 -15 28q0 19 11 31l53 62q66 143 217 300q150 154 290 226l-24 57v4q1 3 4 4l52 22q2 1 5 0q3 0 3 -3l246 -573l4 -9l13 -21q29 -34 78 -34q7 0 11 1h1l125 17q27 2 48 19l89 63 q15 33 21 54l162 511q19 56 64 136.5t83 127.5q2 2 2 3q-12 26 -24 38q-1 1 -1 2l-5 11q-2 3 0 5q0 3 3 4l82 35h3q5 0 6 -3l4 -12q1 0 1 -2q2 -26 13 -50l83 -193q9 -24 27 -44zM420 16v-3l1 -6l2 -6l3 -4l8 -10l202 -31l222 -26l372 -60l-108 186l-8 16l-201 468 q-129 -67 -272 -214t-207 -280q-2 -10 -7 -15l-4 -7zM1451 -9q-25 -6 -32 -7l-125 -17h-1q-5 -1 -18 -1q-14 0 -21 1l49 -84q77 35 148 108zM1959 782l-28 66l-16 -24l-38 -58q-3 -5 -26 -48q57 41 108 64z" />
<glyph d="M2070 677l4 -12q1 -3 0 -5l-3 -3l-84 -31h-2q-4 0 -6 4l-4 10l-39 -31q-175 -139 -260 -348l-84 -206q-44 -108 -139 -175t-210 -71q-13 -8 -25 -8h-1q-18 0 -30 12l-405 67l-317 55q-1 0 -1 1l-38 6q-4 0 -10 4l-49 33h-1q-2 0 -3 -1v-2q0 -1 1 -2l35 -23q8 -7 5 -17 q-4 -9 -13 -9q-4 0 -5 1l-34 12q-11 4 -16 10q-12 12 -12 30q2 18 13 28l74 71l22 20q291 179 510 439l-26 76q-2 3 0 5q1 3 3 3l54 19h2q4 0 6 -4l173 -502l95 -1q52 0 98 24.5t75 68.5l454 690l-3 4q-1 1 -1 2l-4 12q-2 2 0 5l3 3l84 30q3 2 5 0l3 -3l4 -12q1 -1 1 -2 q2 -27 10 -51l65 -179q8 -22 25 -46zM1170 -125l-209 609q-222 -261 -518 -440l-13 -16q-14 -14 2 -29l4 -3q14 -6 23 -7l13 -2h2l318 -49zM1533 107q-33 36 -79 45q-83 -89 -204 -89h-71l62 -181q94 5 170.5 59.5t111.5 141.5zM1481 187q40 -13 69 -39l57 141 q66 164 189 293q-21 7 -42 20zM1955 720l-44 121l-135 -205q26 -15 53 -21q33 32 60 53z" />
<glyph d="M2076 651v-1q0 -1 -1 -1v-1l-1 -1v-1h-1l-3 -1h-1l-101 -34l-3 -2l-20 -8l-1 -1l-4 -3q-2 0 -4 -2l-4 -3l-3 -3q-2 0 -4 -2l-7 -7l-7 -7l-669 -765l-6 -6l-19 -21h-1l-1 -1l-5 -4l-12 -6l-14 -2h-7l-20 3l-195 31l-31 6l-33 6l-67 12l-84 18l-297 63l-34 8l-24 7 q-5 1 -13.5 3.5t-11.5 3.5l-6 3q-5 1 -10 6l-5 4l-4 4l-3 5l-3 6q-2 4 -2 6l-2 6v17l2 6q0 1 2 5q0 2 2 4q1 3 5 7l47 59l83 106l69 88l63 82l58 77l107 141v1l60 87l4 -1l-3 2l1 1v1l9 12v1l10 13l10 14l21 30l8 10l3 2l4 4l5 5l7 5l7 5q4 4 6 5q4 2 5 4l8 5l11 5l24 8 l13 4l21 3l161 25l164 24l254 35l276 38l12 3l7 2l90 30h4l1 -1l2 -2l100 -289q1 0 1 -1zM1888 725v6l-1 8l-1 7l-4 7l-4 6l-17 20l-23 26l-8 6l-8 5l-9 4l-7 2l-11 3l-11 1l-19 1h-35l-31 -3l-84 -8l-80 -9l-77 -10l-73 -10l-69 -10l-66 -10l-61 -11l-59 -10l-55 -11 l-67 -16l-10 -3l-14 -10l-3 -3l-3 -4l-2 -5l-1 -5l-1 -9l-1 -3l1 -11l2 -14l3 -12l194 -698l2 -7l3 -5l4 -4l4 -2l8 -3l7 -1h19l12 2l6 4l11 11l603 720l12 16l10 15l5 9l4 9l3 10zM1110 -99q0 8 -1 12q0 4 -2 10l-195 702l-4 10l-5 4l-3 1l-4 -1l-2 3l1 -3l-1 -1h-2l-2 -2 q-2 0 -3 -1l-4 -3q-2 -2 -3 -2l-2 -2l-3 -2q0 -1 -2 -3l-3 -3q-2 -2 -3 -2v-1l-1 -1l-3 2l2 -2v-1l-3 2l2 -3l-3 2l2 -2l-3 1l3 -2l-2 -2l-3 1l2 -2l-1 -1l-3 -4l-2 -2l-3 1l2 -2l-3 2l3 -3l-2 -1l-3 1l2 -2v-1l-1 -1q0 -1 -1 -1v-1h-1l-7 -8v-1l-77 -95l-48 -59l-54 -67 l-55 -70l-56 -73l-58 -75l-57 -76l-8 -10l-10 -14q-2 -2 -2 -3l-2 -4q-2 -2 -2 -3q-1 -2 -1 -4q-1 -1 -1 -4q-1 -1 -1 -3v-2l-1 -2v-4q0 -5 1 -7q0 -2 2 -8q0 -3 3 -7q2 -4 4 -6l6 -8l9 -6l5 -3l2 -2l7 -2l7 -3l7 -1l75 -13l409 -72l30 -4l60 -9q2 -1 5 -1q3 -1 9 -1 q4 -1 12 -1h10q3 1 8 1l6 2l4 2q1 0 1 1q1 0 1 0.5t1 0.5l2 1l10 8l5 10q2 8 2 11zM942 743q-1 -1 -1 -3v-3l3 -10l2 -3q0 -2 2 -2q1 -1 3 -1q0 -1 2 -1l2 1q2 0 2 1l2 1l2 2v6l-3 10v3l-1 1l-3 2q0 1 -2 1h-4q-2 0 -2 -1q-1 0 -3 -2q-1 -1 -1 -2zM381 -50q10 0 10 10 t-10 10t-10 -10t10 -10z" />
</font>
</defs>
</svg>
