<?xml version="1.0" encoding="utf-8"?>
<!-- Generator: Adobe Illustrator 16.0.0, SVG Export Plug-In . SVG Version: 6.00 Build 0)  -->
<!DOCTYPE svg PUBLIC "-//W3C//DTD SVG 1.1//EN" "http://www.w3.org/Graphics/SVG/1.1/DTD/svg11.dtd">
<svg version="1.1" id="Layer_1" xmlns="http://www.w3.org/2000/svg" xmlns:xlink="http://www.w3.org/1999/xlink" x="0px" y="0px"
	 width="201.036px" height="25.744px" viewBox="0 0 201.036 25.744" enable-background="new 0 0 201.036 25.744"
	 xml:space="preserve">
<polygon fill-rule="evenodd" clip-rule="evenodd" fill="#FFFFFF" points="25.383,24.767 25.383,1.325 29.809,1.325 29.809,11 
	29.873,11 35.614,1.325 40.458,1.325 34.491,10.773 41.131,24.767 36.158,24.767 31.54,14.93 29.809,17.59 29.809,24.767 "/>
<polygon fill-rule="evenodd" clip-rule="evenodd" fill="#FFFFFF" points="56.626,1.325 56.626,5.286 51.459,5.286 51.459,24.767 
	47.034,24.767 47.034,5.286 41.868,5.286 41.868,1.325 "/>
<polygon fill-rule="evenodd" clip-rule="evenodd" fill="#FFFFFF" points="59.509,24.767 59.509,1.325 65.7,1.325 69.709,16.713 
	69.773,16.713 73.787,1.325 79.978,1.325 79.978,24.767 76.19,24.767 76.19,6.325 76.126,6.325 71.41,24.767 68.077,24.767 
	63.36,6.325 63.296,6.325 63.296,24.767 "/>
<path fill-rule="evenodd" clip-rule="evenodd" fill="#FFFFFF" d="M102.91,7.852c-0.363-1.104-0.801-1.905-1.315-2.403
	c-0.514-0.495-1.153-0.745-1.924-0.745c-0.794,0-1.395,0.227-1.814,0.68c-0.416,0.454-0.624,1.084-0.624,1.882
	c0,0.586,0.246,1.1,0.737,1.546c0.491,0.442,1.104,0.869,1.829,1.281c0.726,0.412,1.519,0.85,2.373,1.315s1.648,1.013,2.374,1.64
	s1.338,1.372,1.829,2.237c0.491,0.869,0.737,1.905,0.737,3.118c0,1.017-0.166,1.939-0.495,2.759
	c-0.332,0.824-0.816,1.527-1.443,2.113c-0.631,0.585-1.41,1.036-2.328,1.349c-0.918,0.314-1.958,0.469-3.11,0.469
	c-1.818,0-3.386-0.518-4.697-1.557c-1.315-1.039-2.275-2.717-2.873-5.034l4.361-0.941c0.128,0.714,0.317,1.315,0.563,1.803
	c0.246,0.488,0.529,0.881,0.851,1.183c0.317,0.306,0.657,0.521,1.009,0.65c0.352,0.132,0.692,0.196,1.009,0.196
	c0.771,0,1.417-0.246,1.942-0.733c0.521-0.484,0.786-1.172,0.786-2.06c0-0.737-0.246-1.368-0.737-1.901
	c-0.496-0.529-1.104-1.021-1.829-1.478c-0.729-0.454-1.52-0.904-2.374-1.346c-0.858-0.446-1.647-0.952-2.373-1.527
	c-0.729-0.574-1.338-1.239-1.829-1.995c-0.492-0.76-0.737-1.689-0.737-2.793c0-2.037,0.582-3.639,1.746-4.807
	C95.722,1.586,97.456,1,99.765,1c0.986,0,1.875,0.144,2.664,0.423c0.79,0.28,1.486,0.676,2.086,1.187
	c0.597,0.506,1.096,1.107,1.489,1.799c0.396,0.695,0.691,1.451,0.884,2.275L102.91,7.852z"/>
<polygon fill-rule="evenodd" clip-rule="evenodd" fill="#FFFFFF" points="111.22,24.767 111.22,1.325 115.646,1.325 115.646,10.675 
	121.9,10.675 121.9,1.325 126.325,1.325 126.325,24.767 121.9,24.767 121.9,14.639 115.646,14.639 115.646,24.767 "/>
<path fill-rule="evenodd" clip-rule="evenodd" fill="#FFFFFF" d="M134.602,17.821c0,1.296,0.257,2.173,0.771,2.63
	c0.51,0.454,1.217,0.681,2.116,0.681s1.603-0.227,2.117-0.681c0.514-0.457,0.771-1.333,0.771-2.63V8.275
	c0-1.3-0.257-2.177-0.771-2.63c-0.514-0.454-1.217-0.684-2.117-0.684s-1.606,0.23-2.116,0.684c-0.514,0.454-0.771,1.33-0.771,2.63
	V17.821z M130.176,8.861c0-1.451,0.181-2.676,0.544-3.67c0.363-0.998,0.866-1.803,1.508-2.422c0.643-0.616,1.409-1.065,2.309-1.345
	C135.437,1.144,136.419,1,137.489,1c1.07,0,2.053,0.144,2.952,0.423c0.896,0.28,1.667,0.729,2.309,1.345
	c0.643,0.62,1.145,1.425,1.508,2.422c0.362,0.994,0.544,2.219,0.544,3.67v8.375c0,1.451-0.182,2.672-0.544,3.669
	c-0.363,0.994-0.866,1.803-1.508,2.418c-0.643,0.617-1.413,1.066-2.309,1.346c-0.899,0.284-1.882,0.423-2.952,0.423
	c-1.069,0-2.052-0.14-2.951-0.423c-0.9-0.28-1.667-0.729-2.309-1.346c-0.643-0.615-1.146-1.424-1.508-2.418
	c-0.363-0.998-0.544-2.218-0.544-3.669V8.861z"/>
<path fill-rule="evenodd" clip-rule="evenodd" fill="#FFFFFF" d="M153.078,11.649h2.374c2.18,0,3.273-1.104,3.273-3.31
	c0-2.208-1.093-3.314-3.273-3.314h-2.374V11.649z M148.653,24.767V1.325h6.383c2.736,0,4.772,0.612,6.106,1.833
	c1.338,1.225,2.007,2.952,2.007,5.182c0,2.229-0.669,3.957-2.007,5.177c-1.334,1.225-3.371,1.836-6.106,1.836h-1.958v9.414H148.653z
	"/>
<rect x="162.284" y="20.157" fill-rule="evenodd" clip-rule="evenodd" fill="#FFFFFF" width="4.554" height="4.61"/>
<path fill-rule="evenodd" clip-rule="evenodd" fill="#FFFFFF" d="M175.05,17.821c0,1.296,0.257,2.173,0.771,2.63
	c0.51,0.454,1.217,0.681,2.116,0.681s1.603-0.227,2.116-0.681c0.514-0.457,0.771-1.333,0.771-2.63V16.26h4.425v0.975
	c0,1.451-0.181,2.672-0.544,3.669c-0.367,0.994-0.866,1.803-1.508,2.418c-0.643,0.617-1.414,1.066-2.309,1.346
	c-0.899,0.284-1.882,0.423-2.952,0.423c-1.069,0-2.052-0.14-2.952-0.423c-0.899-0.28-1.667-0.729-2.309-1.346
	c-0.643-0.615-1.146-1.424-1.508-2.418c-0.363-0.998-0.544-2.218-0.544-3.669V8.861c0-1.451,0.181-2.676,0.544-3.67
	c0.363-0.998,0.866-1.803,1.508-2.422c0.642-0.616,1.409-1.065,2.309-1.345c0.9-0.28,1.882-0.423,2.952-0.423
	c1.07,0,2.052,0.144,2.952,0.423c0.896,0.28,1.667,0.729,2.309,1.345c0.642,0.62,1.141,1.425,1.508,2.422
	c0.363,0.994,0.544,2.219,0.544,3.67v0.061h-4.425V8.275c0-1.3-0.257-2.177-0.771-2.63c-0.514-0.454-1.217-0.684-2.116-0.684
	s-1.606,0.23-2.116,0.684c-0.514,0.454-0.771,1.33-0.771,2.63V17.821z"/>
<polygon fill-rule="evenodd" clip-rule="evenodd" fill="#FFFFFF" points="188.844,24.767 188.844,1.325 193.27,1.325 193.27,20.807 
	200.39,20.807 200.39,24.767 "/>
<path fill-rule="evenodd" clip-rule="evenodd" fill="#F16420" d="M15.421,20.75h-5.053l5.604-7.441l-5.604-7.438h5.053l5.604,7.438
	L15.421,20.75z M6.053,20.75H1l5.604-7.441L1,5.871h5.053l5.604,7.438L6.053,20.75z"/>
<g>
	<rect x="82.634" y="12.111" fill-rule="evenodd" clip-rule="evenodd" fill="#FFFFFF" width="8.34" height="3.775"/>
</g>
</svg>
