<?xml version="1.0" encoding="utf-8"?>
<!-- Generator: Adobe Illustrator 16.0.0, SVG Export Plug-In . SVG Version: 6.00 Build 0)  -->
<!DOCTYPE svg PUBLIC "-//W3C//DTD SVG 1.1 Tiny//EN" "http://www.w3.org/Graphics/SVG/1.1/DTD/svg11-tiny.dtd">
<svg version="1.1" baseProfile="tiny" id="Layer_1" xmlns="http://www.w3.org/2000/svg" xmlns:xlink="http://www.w3.org/1999/xlink"
	 x="0px" y="0px" width="68.75px" height="24.667px" viewBox="0 0 68.75 24.667" xml:space="preserve">
<g>
	<path fill-rule="evenodd" fill="#FFFFFF" d="M0.877,23.663h9.314l2.389-6.215l4.3,6.215h20.184l6.207-6.344l-0.955,6.215h7.885
		l6.445-6.086l-0.834,6.086h8.48l3.58-17.35h-8.598l-6.924,6.732l1.311-6.732h-8.119l-8.957,9.842l3.701-11.783h13.375l0.717-3.239
		H18.671l-1.073,3.106L30.852,3.98l-5.613,15.409l-4.418-6.345l7.642-6.86h-6.33l-7.763,6.86l2.628-6.86H7.685
		C4.218,14.727,0.877,23.663,0.877,23.663z"/>
</g>
</svg>
