<?xml version="1.0" encoding="utf-8"?>
<!-- Generator: Adobe Illustrator 16.0.0, SVG Export Plug-In . SVG Version: 6.00 Build 0)  -->
<!DOCTYPE svg PUBLIC "-//W3C//DTD SVG 1.1//EN" "http://www.w3.org/Graphics/SVG/1.1/DTD/svg11.dtd">
<svg version="1.1" id="Layer_1" xmlns="http://www.w3.org/2000/svg" xmlns:xlink="http://www.w3.org/1999/xlink" x="0px" y="0px"
	 width="83.61px" height="38.326px" viewBox="-0.723 -13.407 83.61 38.326" enable-background="new -0.723 -13.407 83.61 38.326"
	 xml:space="preserve">
<g>
	<g>
		<path fill="#FFFFFF" stroke="#FFFFFF" stroke-width="0.5" d="M10.939,23.535v-4.119h-0.854v-0.313h2.1v0.313h-0.86v4.119H10.939z"
			/>
		<path fill="#FFFFFF" stroke="#FFFFFF" stroke-width="0.5" d="M15.071,23.535v-4.434h0.387v2.007h1.35v-2.007h0.387v4.434h-0.387
			v-2.152h-1.35v2.152H15.071z"/>
		<path fill="#FFFFFF" stroke="#FFFFFF" stroke-width="0.5" d="M20.542,23.535v-4.434h1.527v0.314h-1.14v1.68h0.813v0.296h-0.813
			v1.829h1.14v0.314H20.542L20.542,23.535z"/>
		<path fill="#FFFFFF" stroke="#FFFFFF" stroke-width="0.5" d="M29.552,23.535v-4.434h1.168c0.146,0,0.276,0.021,0.389,0.063
			c0.112,0.043,0.202,0.097,0.271,0.164c0.069,0.066,0.124,0.151,0.167,0.252c0.043,0.102,0.072,0.205,0.089,0.313
			c0.016,0.107,0.023,0.227,0.023,0.355c0,0.565-0.204,0.924-0.611,1.074l0.678,2.213h-0.412l-0.64-2.164h-0.734v2.164H29.552z
			 M29.938,21.056h0.778c0.109,0,0.203-0.021,0.279-0.066s0.133-0.107,0.171-0.189c0.039-0.084,0.065-0.17,0.081-0.258
			c0.016-0.09,0.022-0.191,0.022-0.308c0-0.095-0.004-0.18-0.015-0.255c-0.01-0.075-0.025-0.148-0.051-0.223
			c-0.024-0.071-0.058-0.133-0.098-0.182s-0.094-0.088-0.16-0.117c-0.066-0.028-0.144-0.043-0.232-0.043h-0.776V21.056z"/>
		<path fill="#FFFFFF" stroke="#FFFFFF" stroke-width="0.5" d="M34.885,23.535h-0.39l0.865-4.434h0.503l0.865,4.434h-0.393
			l-0.219-1.154h-1.01L34.885,23.535z M35.154,22.121h0.916l-0.46-2.611L35.154,22.121z"/>
		<path fill="#FFFFFF" stroke="#FFFFFF" stroke-width="0.5" d="M39.726,22.25v-1.856c0-0.158,0.01-0.302,0.03-0.431
			c0.021-0.129,0.058-0.252,0.108-0.368s0.118-0.216,0.199-0.296c0.082-0.079,0.186-0.143,0.313-0.188
			c0.126-0.046,0.271-0.069,0.438-0.069c0.685,0,1.028,0.451,1.028,1.353v0.182h-0.369v-0.27c0-0.143-0.012-0.27-0.031-0.379
			c-0.021-0.109-0.057-0.209-0.106-0.297c-0.05-0.09-0.116-0.156-0.203-0.205c-0.089-0.047-0.193-0.069-0.317-0.069
			c-0.112,0-0.21,0.017-0.292,0.048c-0.084,0.031-0.151,0.075-0.203,0.131c-0.052,0.055-0.094,0.123-0.125,0.205
			s-0.053,0.168-0.065,0.258c-0.012,0.09-0.018,0.191-0.018,0.308v2.032c0,0.146,0.01,0.271,0.03,0.379
			c0.02,0.109,0.056,0.207,0.104,0.298c0.05,0.09,0.122,0.157,0.219,0.206c0.096,0.047,0.211,0.07,0.349,0.07
			c0.124,0,0.229-0.023,0.316-0.07c0.088-0.049,0.154-0.116,0.204-0.205c0.051-0.09,0.085-0.188,0.106-0.299
			c0.021-0.109,0.031-0.236,0.031-0.379v-0.305h0.369v0.217c0,0.156-0.011,0.299-0.028,0.428c-0.02,0.129-0.052,0.252-0.102,0.369
			c-0.049,0.117-0.11,0.217-0.188,0.297s-0.174,0.144-0.295,0.189c-0.12,0.049-0.26,0.071-0.417,0.071
			c-0.17,0-0.318-0.022-0.446-0.071c-0.129-0.047-0.231-0.109-0.313-0.189s-0.146-0.18-0.196-0.297s-0.085-0.239-0.104-0.367
			C39.735,22.55,39.726,22.408,39.726,22.25z"/>
		<path fill="#FFFFFF" stroke="#FFFFFF" stroke-width="0.5" d="M45.037,23.535v-4.434h0.389v4.434H45.037z"/>
		<path fill="#FFFFFF" stroke="#FFFFFF" stroke-width="0.5" d="M48.776,23.535v-4.434h0.297l1.387,3.511v-3.511h0.328v4.434h-0.289
			l-1.389-3.437v3.437H48.776z"/>
		<path fill="#FFFFFF" stroke="#FFFFFF" stroke-width="0.5" d="M53.805,22.294v-1.879c0-0.918,0.385-1.376,1.152-1.376
			c0.123,0,0.232,0.014,0.332,0.042c0.1,0.027,0.184,0.064,0.252,0.111s0.129,0.106,0.182,0.183
			c0.051,0.074,0.094,0.149,0.123,0.229s0.055,0.171,0.072,0.275c0.021,0.105,0.033,0.209,0.039,0.308s0.012,0.209,0.012,0.331
			v0.031H55.58v-0.033c0-0.008,0-0.02,0-0.034c0-0.125,0-0.22-0.004-0.284c-0.002-0.064-0.008-0.148-0.02-0.255
			c-0.01-0.106-0.027-0.187-0.057-0.241c-0.027-0.056-0.063-0.115-0.105-0.177c-0.045-0.062-0.104-0.104-0.178-0.131
			s-0.162-0.04-0.266-0.04c-0.143,0-0.266,0.023-0.367,0.072c-0.1,0.05-0.18,0.117-0.234,0.205
			c-0.059,0.088-0.098,0.183-0.121,0.283c-0.025,0.103-0.037,0.213-0.037,0.336v2.215c0,0.113,0.01,0.215,0.031,0.306
			c0.02,0.09,0.055,0.176,0.104,0.259c0.051,0.082,0.125,0.146,0.227,0.191c0.1,0.046,0.223,0.068,0.367,0.068
			c0.135,0,0.248-0.023,0.346-0.072c0.094-0.049,0.166-0.113,0.213-0.196c0.047-0.084,0.082-0.17,0.102-0.259
			c0.02-0.09,0.029-0.188,0.029-0.297v-0.75h-0.537v-0.297h0.924v2.115h-0.17L55.711,23.1c-0.057,0.151-0.158,0.274-0.307,0.364
			c-0.146,0.092-0.309,0.138-0.486,0.138c-0.117,0-0.225-0.011-0.322-0.032s-0.182-0.05-0.252-0.084
			c-0.072-0.033-0.137-0.078-0.193-0.133s-0.104-0.107-0.139-0.16c-0.037-0.054-0.068-0.115-0.098-0.186
			c-0.027-0.071-0.047-0.135-0.061-0.19c-0.014-0.058-0.023-0.121-0.031-0.192c-0.008-0.072-0.014-0.131-0.014-0.177
			C53.807,22.406,53.805,22.354,53.805,22.294z"/>
		<path fill="#FFFFFF" stroke="#FFFFFF" stroke-width="0.5" d="M63.265,22.464l0.34-0.101c0.014,0.124,0.039,0.238,0.072,0.343
			c0.035,0.104,0.082,0.203,0.143,0.293s0.139,0.16,0.234,0.213c0.098,0.052,0.209,0.076,0.332,0.076
			c0.199,0,0.354-0.056,0.461-0.166c0.109-0.112,0.162-0.271,0.162-0.476c0-0.17-0.049-0.334-0.148-0.491
			c-0.1-0.158-0.244-0.341-0.438-0.547l-0.686-0.729c-0.148-0.159-0.264-0.31-0.344-0.448c-0.08-0.14-0.119-0.285-0.119-0.438
			c0-0.289,0.094-0.521,0.283-0.695c0.188-0.174,0.43-0.26,0.725-0.26c0.287,0,0.518,0.083,0.691,0.247
			c0.174,0.163,0.291,0.401,0.35,0.715l0.008,0.041l-0.326,0.104l-0.004-0.036c-0.035-0.222-0.113-0.403-0.236-0.544
			s-0.283-0.211-0.482-0.211c-0.191,0-0.346,0.05-0.461,0.148c-0.113,0.101-0.172,0.246-0.172,0.44c0,0.117,0.031,0.231,0.094,0.345
			s0.15,0.234,0.266,0.361l0.645,0.708c0.018,0.019,0.061,0.065,0.127,0.142c0.068,0.073,0.111,0.123,0.135,0.146
			c0.02,0.023,0.061,0.07,0.115,0.141c0.057,0.068,0.098,0.119,0.117,0.154c0.021,0.035,0.051,0.085,0.09,0.148
			c0.039,0.064,0.066,0.121,0.082,0.17c0.014,0.048,0.027,0.104,0.041,0.168c0.014,0.063,0.021,0.125,0.021,0.188
			c0,0.316-0.098,0.561-0.289,0.731c-0.193,0.172-0.441,0.258-0.746,0.258c-0.156,0-0.299-0.03-0.426-0.092
			s-0.234-0.146-0.322-0.251c-0.086-0.106-0.158-0.227-0.213-0.36C63.327,22.767,63.288,22.623,63.265,22.464z"/>
		<path fill="#FFFFFF" stroke="#FFFFFF" stroke-width="0.5" d="M68.43,23.535v-4.434h0.387v2.007h1.35v-2.007h0.387v4.434h-0.387
			v-2.152h-1.35v2.152H68.43z"/>
		<path fill="#FFFFFF" stroke="#FFFFFF" stroke-width="0.5" d="M73.542,22.25v-1.856c0-0.156,0.014-0.3,0.035-0.431
			c0.023-0.131,0.063-0.254,0.115-0.369c0.055-0.116,0.123-0.215,0.207-0.295c0.082-0.079,0.189-0.143,0.318-0.188
			s0.275-0.069,0.441-0.069s0.314,0.023,0.443,0.069c0.129,0.048,0.234,0.109,0.316,0.188c0.082,0.08,0.152,0.179,0.205,0.295
			c0.057,0.115,0.094,0.238,0.117,0.369c0.021,0.131,0.033,0.273,0.033,0.431v1.856c0,0.903-0.371,1.354-1.117,1.354
			C73.915,23.604,73.542,23.153,73.542,22.25z M75.392,22.335v-2.031c0-0.635-0.244-0.95-0.73-0.95s-0.73,0.315-0.73,0.95v2.031
			c0,0.637,0.244,0.953,0.73,0.953C75.148,23.291,75.392,22.972,75.392,22.335z"/>
		<path fill="#FFFFFF" stroke="#FFFFFF" stroke-width="0.5" d="M78.774,23.535v-4.434h1.07c0.152,0,0.288,0.021,0.407,0.063
			c0.118,0.043,0.217,0.1,0.295,0.172c0.078,0.071,0.143,0.16,0.193,0.264s0.087,0.211,0.107,0.324
			c0.021,0.115,0.031,0.238,0.031,0.371c0,0.136-0.009,0.261-0.026,0.375c-0.017,0.115-0.051,0.229-0.1,0.344
			c-0.048,0.113-0.11,0.209-0.186,0.287c-0.076,0.078-0.176,0.142-0.3,0.189c-0.124,0.049-0.267,0.073-0.428,0.073h-0.682v1.972
			H78.774L78.774,23.535z M79.16,21.25l0.728,0.004c0.217,0.002,0.372-0.074,0.466-0.229c0.094-0.153,0.141-0.396,0.141-0.722
			c0-0.307-0.05-0.53-0.149-0.674c-0.101-0.143-0.252-0.213-0.456-0.213h-0.728L79.16,21.25L79.16,21.25z"/>
	</g>
	<g>
		<path fill="#FFFFFF" d="M80.42-10.253v3.388H63.684c-0.926,0-1.716,0.331-2.368,0.991c-0.651,0.66-0.979,1.459-0.979,2.397
			s0.327,1.736,0.979,2.397c0.652,0.661,1.442,0.991,2.368,0.991h10.042c1.853,0,3.432,0.661,4.735,1.982
			c1.306,1.322,1.959,2.92,1.959,4.794s-0.653,3.473-1.959,4.794c-1.306,1.322-2.884,1.983-4.735,1.983H52.59h-3.285h-0.063V6.688
			c0-0.938-0.326-1.736-0.979-2.397S46.822,3.3,45.895,3.3H32.507v10.165H29.16v-20.33H14.719v20.33h-3.347v-20.33H1.331v-3.388
			h27.83h3.956h12.779c1.854,0,3.432,0.661,4.736,1.982c1.306,1.321,1.958,2.919,1.958,4.794s-0.652,3.473-1.958,4.794
			c-0.101,0.102-0.2,0.198-0.301,0.288c0.101,0.09,0.2,0.186,0.301,0.288c1.306,1.322,1.958,2.92,1.958,4.794v3.388h21.136
			c0.926,0,1.715-0.331,2.367-0.991c0.653-0.661,0.979-1.459,0.979-2.397s-0.325-1.736-0.979-2.397
			c-0.652-0.661-1.441-0.991-2.367-0.991H63.684c-1.853,0-3.431-0.661-4.735-1.982c-1.307-1.322-1.958-2.919-1.958-4.794
			s0.651-3.473,1.958-4.794c1.306-1.322,2.884-1.982,4.735-1.982H80.42 M32.507-0.089h13.388c0.927,0,1.716-0.331,2.368-0.991
			c0.652-0.66,0.979-1.459,0.979-2.397s-0.326-1.736-0.979-2.397s-1.441-0.991-2.368-0.991H33.115h-0.608V-0.089 M81.75-11.584
			h-1.33H63.684c-2.212,0-4.124,0.8-5.683,2.377c-1.555,1.573-2.342,3.501-2.342,5.729s0.786,4.156,2.342,5.729
			C59.56,3.83,61.472,4.63,63.684,4.63h10.042c0.568,0,1.021,0.189,1.421,0.596c0.406,0.411,0.597,0.875,0.597,1.462
			s-0.189,1.051-0.597,1.462c-0.4,0.407-0.853,0.596-1.421,0.596H53.921V6.688c0-1.932-0.593-3.638-1.763-5.082
			c1.17-1.445,1.763-3.15,1.763-5.083c0-2.229-0.788-4.156-2.343-5.729c-1.559-1.578-3.471-2.377-5.684-2.377H33.115H29.16H1.331H0
			v1.331v3.388v1.331h1.331h8.711v18.999v1.33h1.331h3.347h1.331v-1.33V-5.535h11.78v18.999v1.33h1.331h3.347h1.331v-1.33V4.63
			h12.058c0.568,0,1.021,0.189,1.422,0.596c0.405,0.411,0.596,0.875,0.596,1.462v6.777v1.33h1.33h0.063h3.285h21.136
			c2.212,0,4.124-0.8,5.684-2.377c1.554-1.573,2.342-3.501,2.342-5.729s-0.788-4.156-2.342-5.729
			c-1.56-1.578-3.472-2.377-5.684-2.377H63.684c-0.567,0-1.021-0.189-1.422-0.596c-0.405-0.411-0.595-0.875-0.595-1.462
			s0.188-1.051,0.595-1.462c0.402-0.406,0.854-0.596,1.422-0.596H80.42h1.33v-1.331v-3.388V-11.584L81.75-11.584z M33.838-5.535
			h12.058c0.568,0,1.021,0.189,1.422,0.596c0.405,0.411,0.596,0.875,0.596,1.462s-0.189,1.051-0.596,1.462
			c-0.4,0.406-0.854,0.596-1.422,0.596H33.838V-5.535L33.838-5.535z"/>
	</g>
</g>
</svg>
