<?xml version="1.0" encoding="utf-8"?>
<!-- Generator: Adobe Illustrator 16.0.0, SVG Export Plug-In . SVG Version: 6.00 Build 0)  -->
<!DOCTYPE svg PUBLIC "-//W3C//DTD SVG 1.1//EN" "http://www.w3.org/Graphics/SVG/1.1/DTD/svg11.dtd">
<svg version="1.1" id="Layer_1" xmlns="http://www.w3.org/2000/svg" xmlns:xlink="http://www.w3.org/1999/xlink" x="0px" y="0px"
	 width="96.809px" height="96.809px" viewBox="0 0 96.809 96.809" enable-background="new 0 0 96.809 96.809" xml:space="preserve">
<g>
	<g opacity="0.15">
		<polygon points="97.144,76.204 23.298,2.363 56.031,2.433 97.15,43.551 		"/>
	</g>
	<g>
		<polygon fill="#00F3FF" points="97.144,74.204 23.298,0.363 56.031,0.433 97.15,41.551 		"/>
	</g>
</g>
<g>
	<g opacity="0.31">
		<path fill="#04393A" stroke="#04393A" stroke-width="0.5" stroke-miterlimit="10" d="M52.316,23.749l3.401-12.523l0.381-0.564
			l-8.436,8.436l-0.984-0.984L57.616,7.175l0.512,0.512l-3.409,12.532l-0.366,0.563l8.436-8.435l0.984,0.983L52.835,24.268
			L52.316,23.749z"/>
		<path fill="#04393A" stroke="#04393A" stroke-width="0.5" stroke-miterlimit="10" d="M60.558,31.99l0.273-1.312
			c-0.504,0.075-1,0.04-1.491-0.111c-0.49-0.15-0.926-0.416-1.307-0.796l-0.237-0.237c-0.314-0.314-0.553-0.672-0.714-1.071
			c-0.16-0.4-0.24-0.808-0.239-1.224c-0.001-0.417,0.079-0.826,0.24-1.225c0.159-0.399,0.398-0.756,0.714-1.071l5.667-5.667
			l0.938,0.938l-5.721,5.72c-0.188,0.188-0.329,0.401-0.424,0.637c-0.094,0.237-0.141,0.477-0.141,0.721
			c0,0.243,0.047,0.483,0.142,0.72c0.094,0.236,0.235,0.449,0.423,0.636l0.626,0.626c0.188,0.188,0.399,0.329,0.637,0.423
			c0.236,0.094,0.477,0.141,0.721,0.141c0.243,0,0.483-0.047,0.72-0.142c0.237-0.093,0.449-0.234,0.638-0.422l5.721-5.72
			l0.938,0.938l-7.811,7.81L60.558,31.99z"/>
		<path fill="#04393A" stroke="#04393A" stroke-width="0.5" stroke-miterlimit="10" d="M69.815,38.746
			c-0.399,0.161-0.808,0.241-1.224,0.241c-0.418,0-0.826-0.081-1.225-0.242c-0.399-0.16-0.756-0.397-1.071-0.712l-0.626-0.626
			c-0.314-0.314-0.553-0.672-0.713-1.071c-0.161-0.4-0.241-0.808-0.24-1.224c0-0.417,0.079-0.826,0.24-1.225
			c0.16-0.399,0.398-0.756,0.714-1.071l3.523-3.523c0.315-0.315,0.672-0.553,1.071-0.714c0.398-0.16,0.808-0.239,1.225-0.24
			c0.416,0,0.824,0.08,1.224,0.241c0.399,0.16,0.757,0.397,1.071,0.712l0.626,0.626c0.315,0.315,0.553,0.672,0.713,1.071
			c0.16,0.399,0.24,0.808,0.241,1.225c-0.001,0.417-0.081,0.825-0.241,1.223c-0.16,0.399-0.397,0.757-0.713,1.072l-1.838,1.838
			l-4.279-4.279l-1.739,1.739c-0.188,0.188-0.329,0.401-0.423,0.637c-0.094,0.237-0.141,0.477-0.141,0.721
			c-0.001,0.243,0.046,0.483,0.141,0.72c0.094,0.236,0.235,0.449,0.423,0.636l0.626,0.626c0.188,0.188,0.399,0.329,0.637,0.423
			c0.236,0.094,0.477,0.141,0.721,0.141s0.484-0.047,0.721-0.142c0.236-0.093,0.448-0.234,0.637-0.422l0.519-0.519l0.786,1.091
			l-0.313,0.313C70.572,38.349,70.215,38.585,69.815,38.746z M73.526,33.518c0.188-0.188,0.329-0.4,0.423-0.638
			c0.095-0.235,0.142-0.476,0.142-0.72c0-0.244-0.047-0.484-0.141-0.72c-0.096-0.237-0.236-0.45-0.424-0.637L72.9,30.177
			c-0.188-0.188-0.4-0.329-0.636-0.422c-0.237-0.095-0.478-0.142-0.721-0.141c-0.244,0-0.484,0.047-0.722,0.141
			c-0.236,0.094-0.449,0.235-0.637,0.423l-1.16,1.159l3.342,3.341L73.526,33.518z"/>
		<path fill="#04393A" stroke="#04393A" stroke-width="0.5" stroke-miterlimit="10" d="M73.85,45.281l-0.466-0.465l5.043-10.579
			l0.938,0.938l-3.883,7.955l-0.374,0.435l0.435-0.374l7.948-3.889l0.938,0.938L73.85,45.281z"/>
		<path fill="#04393A" stroke="#04393A" stroke-width="0.5" stroke-miterlimit="10" d="M84.779,53.709
			c-0.399,0.161-0.808,0.241-1.224,0.24c-0.418,0-0.826-0.08-1.226-0.241c-0.398-0.16-0.755-0.397-1.07-0.712l-0.626-0.626
			c-0.314-0.314-0.553-0.672-0.713-1.071c-0.161-0.4-0.241-0.808-0.24-1.224c-0.001-0.417,0.079-0.826,0.24-1.225
			c0.159-0.399,0.398-0.756,0.714-1.071l3.523-3.523c0.315-0.315,0.671-0.553,1.071-0.714c0.398-0.16,0.807-0.24,1.225-0.24
			c0.416,0,0.824,0.08,1.224,0.241c0.399,0.16,0.757,0.397,1.071,0.712l0.626,0.626c0.315,0.315,0.553,0.672,0.712,1.071
			c0.161,0.399,0.241,0.808,0.242,1.224c-0.001,0.417-0.081,0.826-0.241,1.224c-0.161,0.399-0.397,0.757-0.713,1.072l-3.523,3.523
			C85.536,53.312,85.178,53.548,84.779,53.709z M88.49,48.481c0.188-0.188,0.329-0.4,0.422-0.638
			c0.096-0.236,0.143-0.477,0.143-0.72c0-0.244-0.047-0.484-0.141-0.72c-0.096-0.237-0.236-0.45-0.424-0.637l-0.626-0.626
			c-0.188-0.188-0.4-0.329-0.636-0.422c-0.237-0.095-0.478-0.142-0.721-0.141c-0.245-0.001-0.485,0.046-0.721,0.141
			c-0.237,0.094-0.45,0.235-0.638,0.423l-3.631,3.63c-0.188,0.188-0.329,0.401-0.423,0.637c-0.095,0.236-0.142,0.476-0.141,0.721
			c-0.001,0.243,0.046,0.483,0.141,0.72c0.094,0.236,0.235,0.449,0.423,0.636l0.626,0.626c0.188,0.188,0.399,0.329,0.637,0.423
			c0.236,0.094,0.477,0.141,0.721,0.141c0.244-0.001,0.484-0.048,0.72-0.142c0.237-0.093,0.449-0.234,0.638-0.422L88.49,48.481z"/>
	</g>
	<g>
		<g>
			<path fill="#FFFFFF" stroke="#FFFFFF" stroke-width="0.5" stroke-miterlimit="10" d="M52.316,21.749l3.401-12.523l0.381-0.564
				l-8.436,8.436l-0.984-0.984L57.616,5.175l0.512,0.512l-3.409,12.532l-0.366,0.563l8.436-8.435l0.984,0.983L52.835,22.268
				L52.316,21.749z"/>
			<path fill="#FFFFFF" stroke="#FFFFFF" stroke-width="0.5" stroke-miterlimit="10" d="M60.558,29.99l0.273-1.312
				c-0.504,0.075-1,0.04-1.491-0.111c-0.49-0.15-0.926-0.416-1.307-0.796l-0.237-0.237c-0.314-0.314-0.553-0.672-0.714-1.071
				c-0.16-0.4-0.24-0.808-0.239-1.224c-0.001-0.417,0.079-0.826,0.24-1.225c0.159-0.399,0.398-0.756,0.714-1.071l5.667-5.667
				l0.938,0.938l-5.721,5.72c-0.188,0.188-0.329,0.401-0.424,0.637c-0.094,0.237-0.141,0.477-0.141,0.721
				c0,0.243,0.047,0.483,0.142,0.72c0.094,0.236,0.235,0.449,0.423,0.636l0.626,0.626c0.188,0.188,0.399,0.329,0.637,0.423
				c0.236,0.094,0.477,0.141,0.721,0.141c0.243,0,0.483-0.047,0.72-0.142c0.237-0.093,0.449-0.234,0.638-0.422l5.721-5.72
				l0.938,0.938l-7.811,7.81L60.558,29.99z"/>
			<path fill="#FFFFFF" stroke="#FFFFFF" stroke-width="0.5" stroke-miterlimit="10" d="M69.815,36.746
				c-0.399,0.161-0.808,0.241-1.224,0.241c-0.418,0-0.826-0.081-1.225-0.242c-0.399-0.16-0.756-0.397-1.071-0.712l-0.626-0.626
				c-0.314-0.314-0.553-0.672-0.713-1.071c-0.161-0.4-0.241-0.808-0.24-1.224c0-0.417,0.079-0.826,0.24-1.225
				c0.16-0.399,0.398-0.756,0.714-1.071l3.523-3.523c0.315-0.315,0.672-0.553,1.071-0.714c0.398-0.16,0.808-0.239,1.225-0.24
				c0.416,0,0.824,0.08,1.224,0.241c0.399,0.16,0.757,0.397,1.071,0.712l0.626,0.626c0.315,0.315,0.553,0.672,0.713,1.071
				c0.16,0.399,0.24,0.808,0.241,1.225c-0.001,0.417-0.081,0.825-0.241,1.223c-0.16,0.399-0.397,0.757-0.713,1.072l-1.838,1.838
				l-4.279-4.279l-1.739,1.739c-0.188,0.188-0.329,0.401-0.423,0.637c-0.094,0.237-0.141,0.477-0.141,0.721
				c-0.001,0.243,0.046,0.483,0.141,0.72c0.094,0.236,0.235,0.449,0.423,0.636l0.626,0.626c0.188,0.188,0.399,0.329,0.637,0.423
				c0.236,0.094,0.477,0.141,0.721,0.141s0.484-0.047,0.721-0.142c0.236-0.093,0.448-0.234,0.637-0.422l0.519-0.519l0.786,1.091
				l-0.313,0.313C70.572,36.349,70.215,36.585,69.815,36.746z M73.526,31.518c0.188-0.188,0.329-0.4,0.423-0.638
				c0.095-0.235,0.142-0.476,0.142-0.72c0-0.244-0.047-0.484-0.141-0.72c-0.096-0.237-0.236-0.45-0.424-0.637L72.9,28.177
				c-0.188-0.188-0.4-0.329-0.636-0.422c-0.237-0.095-0.478-0.142-0.721-0.141c-0.244,0-0.484,0.047-0.722,0.141
				c-0.236,0.094-0.449,0.235-0.637,0.423l-1.16,1.159l3.342,3.341L73.526,31.518z"/>
			<path fill="#FFFFFF" stroke="#FFFFFF" stroke-width="0.5" stroke-miterlimit="10" d="M73.85,43.281l-0.466-0.465l5.043-10.579
				l0.938,0.938l-3.883,7.955l-0.374,0.435l0.435-0.374l7.948-3.889l0.938,0.938L73.85,43.281z"/>
			<path fill="#FFFFFF" stroke="#FFFFFF" stroke-width="0.5" stroke-miterlimit="10" d="M84.779,51.709
				c-0.399,0.161-0.808,0.241-1.224,0.24c-0.418,0-0.826-0.08-1.226-0.241c-0.398-0.16-0.755-0.397-1.07-0.712l-0.626-0.626
				c-0.314-0.314-0.553-0.672-0.713-1.071c-0.161-0.4-0.241-0.808-0.24-1.224c-0.001-0.417,0.079-0.826,0.24-1.225
				c0.159-0.399,0.398-0.756,0.714-1.071l3.523-3.523c0.315-0.315,0.671-0.553,1.071-0.714c0.398-0.16,0.807-0.24,1.225-0.24
				c0.416,0,0.824,0.08,1.224,0.241c0.399,0.16,0.757,0.397,1.071,0.712l0.626,0.626c0.315,0.315,0.553,0.672,0.712,1.071
				c0.161,0.399,0.241,0.808,0.242,1.224c-0.001,0.417-0.081,0.826-0.241,1.224c-0.161,0.399-0.397,0.757-0.713,1.072l-3.523,3.523
				C85.536,51.312,85.178,51.548,84.779,51.709z M88.49,46.481c0.188-0.188,0.329-0.4,0.422-0.638
				c0.096-0.236,0.143-0.477,0.143-0.72c0-0.244-0.047-0.484-0.141-0.72c-0.096-0.237-0.236-0.45-0.424-0.637l-0.626-0.626
				c-0.188-0.188-0.4-0.329-0.636-0.422c-0.237-0.095-0.478-0.142-0.721-0.141c-0.245-0.001-0.485,0.046-0.721,0.141
				c-0.237,0.094-0.45,0.235-0.638,0.423l-3.631,3.63c-0.188,0.188-0.329,0.401-0.423,0.637c-0.095,0.236-0.142,0.476-0.141,0.721
				c-0.001,0.243,0.046,0.483,0.141,0.72c0.094,0.236,0.235,0.449,0.423,0.636l0.626,0.626c0.188,0.188,0.399,0.329,0.637,0.423
				c0.236,0.094,0.477,0.141,0.721,0.141c0.244-0.001,0.484-0.048,0.72-0.142c0.237-0.093,0.449-0.234,0.638-0.422L88.49,46.481z"/>
		</g>
	</g>
</g>
</svg>
