<?xml version="1.0" encoding="utf-8"?>
<!-- Generator: Adobe Illustrator 16.0.0, SVG Export Plug-In . SVG Version: 6.00 Build 0)  -->
<!DOCTYPE svg PUBLIC "-//W3C//DTD SVG 1.1//EN" "http://www.w3.org/Graphics/SVG/1.1/DTD/svg11.dtd">
<svg version="1.1" id="Layer_1" xmlns="http://www.w3.org/2000/svg" xmlns:xlink="http://www.w3.org/1999/xlink" x="0px" y="0px"
	 width="226.406px" height="27.534px" viewBox="-65.792 -2.867 226.406 27.534"
	 enable-background="new -65.792 -2.867 226.406 27.534" xml:space="preserve">
<g>
	<polygon fill-rule="evenodd" clip-rule="evenodd" fill="#FFFFFF" points="-37.47,23.968 -37.47,-2.5 -32.473,-2.5 -32.473,8.423 
		-32.4,8.423 -25.918,-2.5 -20.449,-2.5 -27.186,8.167 -19.689,23.968 -25.305,23.968 -30.519,12.861 -32.473,15.865 
		-32.473,23.968 	"/>
	<polygon fill-rule="evenodd" clip-rule="evenodd" fill="#FFFFFF" points="-2.194,-2.5 -2.194,1.972 -8.027,1.972 -8.027,23.968 
		-13.024,23.968 -13.024,1.972 -18.856,1.972 -18.856,-2.5 	"/>
	<polygon fill-rule="evenodd" clip-rule="evenodd" fill="#FFFFFF" points="1.061,23.968 1.061,-2.5 8.051,-2.5 12.577,14.875 
		12.65,14.875 17.182,-2.5 24.171,-2.5 24.171,23.968 19.896,23.968 19.896,3.145 19.823,3.145 14.499,23.968 10.734,23.968 
		5.409,3.145 5.337,3.145 5.337,23.968 	"/>
	<path fill-rule="evenodd" clip-rule="evenodd" fill="#FFFFFF" d="M50.063,4.869c-0.41-1.246-0.905-2.15-1.485-2.714
		c-0.581-0.558-1.302-0.841-2.172-0.841c-0.896,0-1.574,0.256-2.048,0.769c-0.47,0.512-0.704,1.225-0.704,2.125
		c0,0.661,0.276,1.242,0.832,1.745c0.555,0.499,1.246,0.981,2.065,1.446s1.715,0.96,2.679,1.485
		c0.964,0.524,1.861,1.143,2.681,1.852c0.819,0.708,1.51,1.548,2.065,2.526c0.554,0.98,0.83,2.15,0.83,3.521
		c0,1.147-0.187,2.188-0.558,3.113c-0.374,0.931-0.922,1.725-1.63,2.386c-0.713,0.66-1.592,1.169-2.629,1.523
		c-1.037,0.353-2.21,0.529-3.512,0.529c-2.053,0-3.823-0.585-5.304-1.759c-1.484-1.174-2.568-3.068-3.243-5.683l4.924-1.063
		c0.146,0.808,0.359,1.484,0.637,2.034c0.276,0.552,0.597,0.995,0.96,1.337c0.357,0.346,0.742,0.589,1.139,0.734
		c0.397,0.147,0.781,0.221,1.14,0.221c0.871,0,1.6-0.278,2.193-0.826c0.589-0.548,0.888-1.324,0.888-2.327
		c0-0.831-0.277-1.544-0.833-2.146c-0.559-0.598-1.245-1.152-2.064-1.668c-0.823-0.514-1.716-1.02-2.68-1.52
		c-0.969-0.503-1.86-1.075-2.679-1.724c-0.824-0.648-1.512-1.399-2.066-2.252c-0.555-0.858-0.832-1.908-0.832-3.153
		c0-2.3,0.657-4.109,1.972-5.428c1.318-1.318,3.276-1.98,5.884-1.98c1.113,0,2.116,0.162,3.009,0.478
		c0.891,0.316,1.677,0.764,2.354,1.339c0.675,0.572,1.237,1.25,1.682,2.031c0.448,0.785,0.781,1.639,0.999,2.569L50.063,4.869z"/>
	<polygon fill-rule="evenodd" clip-rule="evenodd" fill="#FFFFFF" points="59.447,23.968 59.447,-2.5 64.442,-2.5 64.442,8.057 
		71.505,8.057 71.505,-2.5 76.501,-2.5 76.501,23.968 71.505,23.968 71.505,12.533 64.442,12.533 64.442,23.968 	"/>
	<path fill-rule="evenodd" clip-rule="evenodd" fill="#FFFFFF" d="M85.846,16.126c0,1.463,0.292,2.452,0.871,2.968
		c0.576,0.514,1.374,0.77,2.389,0.77c1.017,0,1.81-0.256,2.391-0.77c0.579-0.516,0.869-1.505,0.869-2.968V5.347
		c0-1.468-0.29-2.458-0.869-2.97c-0.581-0.512-1.374-0.772-2.391-0.772c-1.015,0-1.813,0.26-2.389,0.772
		c-0.579,0.512-0.871,1.501-0.871,2.97V16.126z M80.849,6.009c0-1.639,0.205-3.022,0.616-4.144c0.408-1.126,0.976-2.036,1.701-2.735
		c0.726-0.696,1.591-1.203,2.607-1.519c1.016-0.316,2.125-0.478,3.332-0.478c1.208,0,2.317,0.162,3.333,0.478
		c1.011,0.316,1.882,0.823,2.606,1.519c0.726,0.699,1.294,1.608,1.703,2.735c0.409,1.122,0.615,2.505,0.615,4.144v9.456
		c0,1.638-0.206,3.016-0.615,4.143c-0.409,1.121-0.978,2.036-1.703,2.729c-0.725,0.697-1.596,1.205-2.606,1.521
		c-1.016,0.318-2.125,0.477-3.333,0.477c-1.207,0-2.316-0.158-3.332-0.477c-1.017-0.316-1.882-0.824-2.607-1.521
		c-0.726-0.693-1.293-1.608-1.701-2.729c-0.411-1.127-0.616-2.505-0.616-4.143V6.009z"/>
	<path fill-rule="evenodd" clip-rule="evenodd" fill="#FFFFFF" d="M106.708,9.157h2.679c2.462,0,3.695-1.246,3.695-3.736
		c0-2.493-1.233-3.743-3.695-3.743h-2.679V9.157z M101.711,23.968V-2.5h7.207c3.088,0,5.388,0.691,6.895,2.069
		c1.511,1.383,2.267,3.333,2.267,5.851c0,2.518-0.756,4.467-2.267,5.845c-1.507,1.383-3.807,2.073-6.895,2.073h-2.21v10.63H101.711z
		"/>
	<rect x="117.102" y="18.762" fill-rule="evenodd" clip-rule="evenodd" fill="#FFFFFF" width="5.141" height="5.206"/>
	<path fill-rule="evenodd" clip-rule="evenodd" fill="#FFFFFF" d="M131.516,16.126c0,1.463,0.289,2.452,0.869,2.968
		c0.577,0.514,1.375,0.77,2.391,0.77s1.81-0.256,2.389-0.77c0.582-0.516,0.871-1.505,0.871-2.968v-1.764h4.996v1.103
		c0,1.638-0.205,3.016-0.613,4.143c-0.414,1.121-0.979,2.036-1.703,2.729c-0.726,0.697-1.595,1.205-2.608,1.521
		c-1.015,0.318-2.123,0.477-3.331,0.477c-1.207,0-2.317-0.158-3.333-0.477c-1.017-0.316-1.882-0.824-2.605-1.521
		c-0.727-0.693-1.295-1.608-1.704-2.729c-0.409-1.127-0.613-2.505-0.613-4.143V6.009c0-1.639,0.204-3.022,0.613-4.144
		c0.409-1.126,0.978-2.036,1.704-2.735c0.724-0.696,1.589-1.203,2.605-1.519c1.016-0.316,2.126-0.478,3.333-0.478
		c1.208,0,2.316,0.162,3.331,0.478c1.014,0.316,1.883,0.823,2.608,1.519c0.724,0.699,1.289,1.608,1.703,2.735
		c0.408,1.122,0.613,2.505,0.613,4.144v0.068h-4.996v-0.73c0-1.468-0.289-2.458-0.871-2.97c-0.579-0.512-1.373-0.772-2.389-0.772
		s-1.813,0.26-2.391,0.772c-0.58,0.512-0.869,1.501-0.869,2.97V16.126z"/>
	<polygon fill-rule="evenodd" clip-rule="evenodd" fill="#FFFFFF" points="147.09,23.968 147.09,-2.5 152.086,-2.5 152.086,19.495 
		160.125,19.495 160.125,23.968 	"/>
	<path fill-rule="evenodd" clip-rule="evenodd" fill="#F16420" d="M-48.717,19.431h-5.705l6.328-8.401l-6.328-8.397h5.705
		l6.328,8.397L-48.717,19.431z M-59.295,19.431H-65l6.328-8.401L-65,2.633h5.705l6.328,8.397L-59.295,19.431z"/>
	<g>
		<rect x="27.171" y="9.678" fill-rule="evenodd" clip-rule="evenodd" fill="#FFFFFF" width="9.417" height="4.264"/>
	</g>
</g>
</svg>
